<svg xmlns="http://www.w3.org/2000/svg" enable-background="new 0 0 100 100" viewBox="0 0 100 100" x="0px" y="0px" xmlns:xml="http://www.w3.org/XML/1998/namespace" xml:space="preserve" version="1.1">   <title>REGION-andrapradesh-01</title><g fill="none" fill-rule="evenodd"><g transform="translate(0 15)"><circle fill="#31a799" cx="38.5" cy="39.4" r="38" /><path fill="#4a4a4a" d="M 38.5 77.9 C 17.3 77.9 0 60.6 0 39.4 S 17.3 0.9 38.5 0.9 S 77 18.2 77 39.4 S 59.7 77.9 38.5 77.9 Z m 0 -76 C 17.8 1.9 1 18.7 1 39.4 s 16.8 37.5 37.5 37.5 S 76 60.1 76 39.4 S 59.2 1.9 38.5 1.9 Z" /></g><g transform="translate(4 61)"><path fill="#fff" d="M 1.1 0.5 H 69 v 30.9 H 1.1 Z" /><path fill="#4a4a4a" d="M 69.1 31.9 h -68 c -0.3 0 -0.5 -0.2 -0.5 -0.5 V 0.5 c 0 -0.3 0.2 -0.5 0.5 -0.5 H 69 c 0.3 0 0.5 0.2 0.5 0.5 v 30.9 c 0.1 0.3 -0.2 0.5 -0.4 0.5 Z m -67.5 -1 h 66.9 V 1 H 1.6 v 29.9 Z" /></g><g transform="translate(1 79)"><path fill="#fff" d="M 1 1 h 74.5 v 12.7 H 1 Z" /><path fill="#4a4a4a" d="M 75.5 14.2 H 1 c -0.3 0 -0.5 -0.2 -0.5 -0.5 V 1 C 0.5 0.7 0.7 0.5 1 0.5 h 74.5 c 0.3 0 0.5 0.2 0.5 0.5 v 12.7 c 0 0.3 -0.2 0.5 -0.5 0.5 Z m -74 -1 H 75 V 1.5 H 1.5 v 11.7 Z" /></g><g transform="translate(7 47)"><path fill="#fff" d="M 0.7 0.7 h 62.8 v 11.1 H 0.7 Z" /><path fill="#4a4a4a" d="M 63.5 12.3 H 0.7 c -0.3 0 -0.5 -0.2 -0.5 -0.5 V 0.7 C 0.2 0.4 0.4 0.2 0.7 0.2 h 62.8 c 0.3 0 0.5 0.2 0.5 0.5 v 11.1 c 0 0.3 -0.2 0.5 -0.5 0.5 Z m -62.3 -1 H 63 V 1.2 H 1.2 v 10.1 Z" /></g><path fill="#4a4a4a" d="M 73.1 76.8 h -68 c -0.3 0 -0.5 -0.2 -0.5 -0.5 s 0.2 -0.5 0.5 -0.5 H 73 c 0.3 0 0.5 0.2 0.5 0.5 s -0.2 0.5 -0.4 0.5 Z" /><g transform="translate(1 56)"><path fill="#fff" d="M 1 0.8 h 74.3 v 4.5 H 1 Z" /><path fill="#4a4a4a" d="M 75.3 5.8 H 1 c -0.3 0 -0.5 -0.2 -0.5 -0.5 V 0.8 C 0.5 0.5 0.7 0.3 1 0.3 h 74.3 c 0.3 0 0.5 0.2 0.5 0.5 v 4.5 c 0 0.3 -0.2 0.5 -0.5 0.5 Z m -73.8 -1 h 73.3 V 1.3 H 1.5 v 3.5 Z" /></g><g transform="translate(31 62)"><path fill="#fff" d="M 0.6 1.2 h 16 v 29.2 H 0.6 Z" /><path fill="#4a4a4a" d="M 16.6 30.9 H 0.6 c -0.3 0 -0.5 -0.2 -0.5 -0.5 V 1.2 C 0.1 0.9 0.3 0.7 0.6 0.7 h 16 c 0.3 0 0.5 0.2 0.5 0.5 v 29.2 c 0 0.3 -0.2 0.5 -0.5 0.5 Z m -15.5 -1 h 15 V 1.7 h -15 v 28.2 Z" /></g><g transform="translate(28 59)"><path fill="#fff" d="M 1 1 h 21 v 3.2 H 1 Z" /><path fill="#4a4a4a" d="M 22.1 4.7 H 1 c -0.3 0 -0.5 -0.2 -0.5 -0.5 V 1 C 0.5 0.7 0.7 0.5 1 0.5 h 21 c 0.3 0 0.5 0.2 0.5 0.5 v 3.2 c 0.1 0.3 -0.1 0.5 -0.4 0.5 Z m -20.6 -1 h 20 V 1.5 h -20 v 2.2 Z" /></g><g transform="translate(35 67)"><path fill="#fff" d="M 0.6 1.3 h 8 v 24.1 h -8 Z" /><path fill="#4a4a4a" d="M 8.6 25.9 h -8 c -0.3 0 -0.5 -0.2 -0.5 -0.5 V 1.3 C 0.1 1 0.3 0.8 0.6 0.8 h 8 c 0.3 0 0.5 0.2 0.5 0.5 v 24.1 c 0 0.3 -0.3 0.5 -0.5 0.5 Z m -7.5 -1 h 7 V 1.8 h -7 v 23.1 Z" /></g><g transform="translate(13 36)"><path fill="#fff" d="M 0.8 0.5 h 50.6 v 9 H 0.8 Z" /><path fill="#4a4a4a" d="M 51.4 10 H 0.8 c -0.3 0 -0.5 -0.2 -0.5 -0.5 v -9 C 0.3 0.2 0.5 0 0.8 0 h 50.6 c 0.3 0 0.5 0.2 0.5 0.5 v 9 c 0 0.3 -0.2 0.5 -0.5 0.5 Z M 1.3 9 h 49.6 V 1 H 1.3 v 8 Z" /></g><g transform="translate(5 44)"><path fill="#fff" d="M 1.1 1 h 66.1 v 2.7 H 1.1 Z" /><path fill="#4a4a4a" d="M 67.1 4.2 h -66 c -0.3 0 -0.5 -0.2 -0.5 -0.5 V 1 c 0 -0.3 0.2 -0.5 0.5 -0.5 h 66.1 c 0.3 0 0.5 0.2 0.5 0.5 v 2.7 c -0.1 0.3 -0.3 0.5 -0.6 0.5 Z m -65.5 -1 h 65.1 V 1.5 H 1.6 v 1.7 Z" /></g><g transform="translate(12 33)"><path fill="#fff" d="M 0.5 1.3 h 53.2 v 2.2 H 0.5 Z" /><path fill="#4a4a4a" d="M 53.7 4 H 0.5 C 0.2 4 0 3.8 0 3.5 V 1.3 C 0 1 0.2 0.8 0.5 0.8 h 53.2 c 0.3 0 0.5 0.2 0.5 0.5 v 2.2 c 0 0.3 -0.2 0.5 -0.5 0.5 Z M 1 3 h 52.2 V 1.8 H 1 V 3 Z" /></g><g transform="translate(18 26)"><path fill="#fff" d="M 0.7 1.1 h 40.8 v 7.2 H 0.7 Z" /><path fill="#4a4a4a" d="M 41.5 8.8 H 0.7 c -0.3 0 -0.5 -0.2 -0.5 -0.5 V 1.1 C 0.2 0.8 0.4 0.6 0.7 0.6 h 40.7 c 0.3 0 0.5 0.2 0.5 0.5 v 7.2 c 0.1 0.3 -0.2 0.5 -0.4 0.5 Z m -40.3 -1 H 41 V 1.6 H 1.2 v 6.2 Z" /></g><g transform="translate(21 18)"><path fill="#fff" d="M 0.5 1 h 35.9 v 6.4 H 0.5 Z" /><path fill="#4a4a4a" d="M 36.5 7.9 H 0.5 c -0.3 0 -0.5 -0.2 -0.5 -0.5 V 1 C 0 0.7 0.2 0.5 0.5 0.5 h 35.9 c 0.3 0 0.5 0.2 0.5 0.5 v 6.4 c 0.1 0.2 -0.2 0.5 -0.4 0.5 Z M 1 6.9 h 35 V 1.5 H 1 v 5.4 Z" /></g><g transform="translate(25 4)"><path fill="#fff" d="M 0.7 1.2 h 27.8 v 4.9 H 0.7 Z" /><path fill="#4a4a4a" d="M 28.5 6.6 H 0.7 c -0.3 0 -0.5 -0.2 -0.5 -0.5 V 1.2 C 0.2 0.9 0.4 0.7 0.7 0.7 h 27.8 c 0.3 0 0.5 0.2 0.5 0.5 v 4.9 c 0 0.3 -0.3 0.5 -0.5 0.5 Z m -27.3 -1 H 28 V 1.7 H 1.2 v 3.9 Z" /></g><g transform="translate(23 11)"><path fill="#fff" d="M 1.4 1 h 30.4 v 5.4 H 1.4 Z" /><path fill="#4a4a4a" d="M 31.8 6.9 H 1.4 c -0.3 0 -0.5 -0.2 -0.5 -0.5 V 1 c 0 -0.3 0.2 -0.5 0.5 -0.5 h 30.4 c 0.3 0 0.5 0.2 0.5 0.5 v 5.4 c 0 0.2 -0.2 0.5 -0.5 0.5 Z m -29.9 -1 h 29.4 V 1.5 H 1.9 v 4.4 Z" /></g><g transform="translate(23 9)"><path fill="#fff" d="M 0.6 1 h 32 v 1.9 H 0.6 Z" /><path fill="#4a4a4a" d="M 32.6 3.5 H 0.6 C 0.3 3.5 0.1 3.3 0.1 3 V 1 C 0.1 0.7 0.3 0.5 0.6 0.5 h 32 c 0.3 0 0.5 0.2 0.5 0.5 v 2 c 0 0.2 -0.2 0.5 -0.5 0.5 Z m -31.5 -1 h 31 v -0.9 h -31 v 0.9 Z" /></g><g transform="translate(20 16)"><path fill="#fff" d="M 0.6 0.7 h 37.8 V 3 H 0.6 Z" /><path fill="#4a4a4a" d="M 38.4 3.5 H 0.6 C 0.3 3.5 0.1 3.3 0.1 3 V 0.7 C 0.1 0.4 0.3 0.2 0.6 0.2 h 37.8 c 0.3 0 0.5 0.2 0.5 0.5 V 3 c 0 0.2 -0.2 0.5 -0.5 0.5 Z m -37.3 -1 h 36.8 V 1.2 H 1.1 v 1.3 Z" /></g><g transform="translate(17 24)"><path fill="#fff" d="M 0.7 0.5 h 42.8 v 2.6 H 0.7 Z" /><path fill="#4a4a4a" d="M 43.5 3.6 H 0.7 c -0.3 0 -0.5 -0.2 -0.5 -0.5 V 0.5 C 0.2 0.2 0.4 0 0.7 0 h 42.8 c 0.3 0 0.5 0.2 0.5 0.5 v 2.6 c 0 0.3 -0.2 0.5 -0.5 0.5 Z m -42.3 -1 H 43 V 1 H 1.2 v 1.6 Z" /></g><g transform="translate(20 1)"><path fill="#fff" d="M 6 3.9 C 4.9 3.2 4.3 1.8 4.5 0.5 c 0 0 -3.5 0.4 -1 3.4 c -0.2 1.2 -0.2 2.4 0 3.6 c 0 0 -0.6 1.4 -2.5 0 c 0 0 -0.4 2.8 3.2 1.5 h 1.7 V 3.9 H 6 Z" /><path fill="#4a4a4a" d="M 2.7 9.9 c -0.6 0 -1 -0.1 -1.4 -0.4 c -0.9 -0.7 -0.7 -1.9 -0.7 -2 c 0 -0.2 0.1 -0.3 0.3 -0.4 c 0.2 -0.1 0.4 0 0.5 0.1 c 0.5 0.4 1 0.6 1.3 0.5 c 0.2 0 0.3 -0.1 0.3 -0.2 c -0.2 -1.1 -0.2 -2.2 0 -3.3 c -0.8 -1 -1 -1.9 -0.7 -2.6 C 2.8 0.4 4.3 0.2 4.5 0.2 c 0.2 0 0.3 0 0.4 0.2 c 0.1 -0.1 0.2 0.1 0.1 0.2 c -0.2 1.1 0.3 2.3 1.2 2.9 c 0.1 0.1 0.2 0.3 0.2 0.4 V 9 c 0 0.3 -0.2 0.5 -0.5 0.5 H 4.3 c -0.6 0.3 -1.1 0.4 -1.6 0.4 Z m -0.9 -1.4 c 0 0.1 0.1 0.1 0.2 0.2 c 0.4 0.3 1.1 0.3 2.2 -0.1 h 1.4 V 4.2 c -1 -0.7 -1.5 -1.8 -1.5 -3 c -0.3 0.1 -0.7 0.3 -0.8 0.6 c -0.2 0.4 0.1 1 0.7 1.8 c 0 0.1 0.1 0.3 0 0.4 c -0.2 1.1 -0.1 2.3 0 3.4 v 0.3 c 0 0.1 -0.3 0.7 -1.1 0.8 c -0.3 0.2 -0.7 0.1 -1.1 0 Z" /></g><g transform="translate(52 1)"><path fill="#fff" d="M 0.6 4 c 0.2 0 2 -1.5 1.5 -3.4 c 0 0 3.5 0.4 1 3.4 c 0.2 1.2 0.1 2.4 -0.1 3.5 c 0 0 0.6 1.4 2.5 0 c 0 0 0.4 2.8 -3.2 1.5 H 0.6 V 4 Z" /><path fill="#4a4a4a" d="M 3.9 9.9 c -0.5 0 -1.1 -0.1 -1.7 -0.3 H 0.6 c -0.3 0 -0.5 -0.2 -0.5 -0.5 V 4 c 0 -0.2 0.1 -0.4 0.3 -0.5 c 0.3 -0.2 1.5 -1.4 1.1 -2.8 c 0 -0.2 0 -0.3 0.1 -0.5 c 0.1 -0.1 0.3 -0.2 0.4 -0.2 c 0.2 0 1.8 0.2 2.2 1.4 c 0.3 0.7 0 1.6 -0.8 2.6 c 0.1 1.1 0.1 2.2 -0.1 3.3 c 0.1 0.1 0.2 0.2 0.3 0.2 c 0.3 0.1 0.8 -0.1 1.3 -0.5 c 0.4 0 0.6 0 0.8 0.1 c 0.2 0.1 0.3 0.2 0.3 0.4 c 0 0.1 0.2 1.3 -0.7 2 c -0.4 0.2 -0.8 0.4 -1.4 0.4 Z M 1.1 8.5 h 1.4 c 1 0.4 1.8 0.4 2.2 0.1 l 0.2 -0.2 c -0.4 0.2 -0.8 0.2 -1.2 0.1 c -0.7 -0.2 -1 -0.8 -1.1 -0.8 c 0 -0.1 -0.1 -0.2 0 -0.3 c 0.2 -1.1 0.2 -2.3 0.1 -3.4 c 0 -0.1 0 -0.3 0.1 -0.4 c 0.6 -0.8 0.9 -1.4 0.7 -1.8 c -0.1 -0.3 -0.4 -0.5 -0.7 -0.6 c 0 0.7 -0.3 1.5 -0.8 2.2 c 0 0 -0.4 0.5 -0.8 0.8 v 4.3 h -0.1 Z" /></g><g transform="translate(27 2)"><circle fill="#fff" cx="1.3" cy="2" r="1" /><path fill="#4a4a4a" d="M 1.3 3.2 C 0.6 3.2 0.1 2.6 0.1 2 S 0.7 0.8 1.3 0.8 s 1.2 0.6 1.2 1.2 S 2 3.2 1.3 3.2 Z m 0 -2 c -0.4 0 -0.7 0.3 -0.7 0.7 c 0 0.4 0.3 0.7 0.7 0.7 c 0.4 0 0.7 -0.2 0.7 -0.6 c 0 -0.4 -0.3 -0.8 -0.7 -0.8 Z" /></g><g transform="translate(27 1)"><circle fill="#fff" cx="1.3" cy="1" r="0.7" /><path fill="#4a4a4a" d="M 1.3 1.9 C 0.8 1.9 0.4 1.5 0.4 1 s 0.4 -1 0.9 -1 s 0.9 0.4 0.9 0.9 s -0.4 1 -0.9 1 Z m 0 -1.4 C 1.1 0.5 0.9 0.7 0.9 0.9 s 0.2 0.4 0.4 0.4 s 0.4 -0.2 0.4 -0.4 s -0.2 -0.4 -0.4 -0.4 Z" /></g><g transform="translate(27)"><ellipse fill="#fff" cx="1.3" cy="0.8" rx="0.3" ry="0.6" /><path fill="#4a4a4a" d="M 1.3 1.6 C 1 1.6 0.7 1.2 0.7 0.8 S 1 0 1.3 0 s 0.6 0.4 0.6 0.8 s -0.3 0.8 -0.6 0.8 Z m 0 -1.1 s -0.1 0.1 -0.1 0.3 c 0 0.2 0.1 0.3 0.1 0.3 s 0.1 -0.1 0.1 -0.3 c 0 -0.2 -0.1 -0.3 -0.1 -0.3 Z" /></g><g transform="translate(49 2)"><circle fill="#fff" cx="1.3" cy="2" r="1" /><path fill="#4a4a4a" d="M 1.3 3.2 C 0.6 3.2 0.1 2.6 0.1 2 S 0.7 0.8 1.3 0.8 c 0.7 0 1.2 0.6 1.2 1.2 S 2 3.2 1.3 3.2 Z m 0 -2 c -0.4 0 -0.7 0.3 -0.7 0.7 c 0 0.4 0.3 0.7 0.7 0.7 c 0.4 0 0.7 -0.3 0.7 -0.7 c 0 -0.4 -0.3 -0.7 -0.7 -0.7 Z" /></g><g transform="translate(49 1)"><circle fill="#fff" cx="1.3" cy="1" r="0.7" /><path fill="#4a4a4a" d="M 1.3 1.9 C 0.8 1.9 0.4 1.5 0.4 1 s 0.4 -1 0.9 -1 s 0.9 0.4 0.9 0.9 s -0.4 1 -0.9 1 Z m 0 -1.4 C 1.1 0.5 0.9 0.7 0.9 0.9 s 0.2 0.4 0.4 0.4 s 0.4 -0.2 0.4 -0.4 s -0.1 -0.4 -0.4 -0.4 Z" /></g><g transform="translate(49)"><ellipse fill="#fff" cx="1.3" cy="0.8" rx="0.3" ry="0.6" /><path fill="#4a4a4a" d="M 1.3 1.6 C 1 1.6 0.7 1.2 0.7 0.8 S 1 0 1.3 0 s 0.6 0.4 0.6 0.8 s -0.2 0.8 -0.6 0.8 Z m 0 -1.1 s -0.1 0.1 -0.1 0.3 c 0 0.2 0.1 0.3 0.1 0.3 s 0.1 -0.1 0.1 -0.3 c 0 -0.2 0 -0.3 -0.1 -0.3 Z" /></g><g transform="translate(32 2)"><circle fill="#fff" cx="1.3" cy="2" r="1" /><path fill="#4a4a4a" d="M 1.3 3.2 C 0.6 3.2 0.1 2.6 0.1 2 S 0.7 0.8 1.3 0.8 s 1.2 0.6 1.2 1.2 S 2 3.2 1.3 3.2 Z m 0 -2 c -0.4 0 -0.7 0.3 -0.7 0.7 c 0 0.4 0.3 0.7 0.7 0.7 c 0.4 0 0.7 -0.2 0.7 -0.6 c 0 -0.4 -0.3 -0.8 -0.7 -0.8 Z" /></g><g transform="translate(32 1)"><circle fill="#fff" cx="1.3" cy="1" r="0.7" /><path fill="#4a4a4a" d="M 1.3 1.9 C 0.8 1.9 0.4 1.5 0.4 1 s 0.4 -1 0.9 -1 s 0.9 0.4 0.9 0.9 s -0.4 1 -0.9 1 Z m 0 -1.4 C 1.1 0.5 0.9 0.7 0.9 0.9 s 0.2 0.4 0.4 0.4 s 0.4 -0.2 0.4 -0.4 s -0.2 -0.4 -0.4 -0.4 Z" /></g><g transform="translate(32)"><ellipse fill="#fff" cx="1.3" cy="0.8" rx="0.3" ry="0.6" /><path fill="#4a4a4a" d="M 1.3 1.6 C 1 1.6 0.7 1.2 0.7 0.8 S 1 0 1.3 0 s 0.6 0.4 0.6 0.8 s -0.2 0.8 -0.6 0.8 Z m 0 -1.1 s -0.1 0.1 -0.1 0.3 c 0 0.2 0.1 0.3 0.1 0.3 s 0.1 -0.1 0.1 -0.3 c 0 -0.2 0 -0.3 -0.1 -0.3 Z" /></g><g transform="translate(38 2)"><circle fill="#fff" cx="1.3" cy="2" r="1" /><path fill="#4a4a4a" d="M 1.3 3.2 C 0.6 3.2 0.1 2.6 0.1 2 S 0.7 0.8 1.3 0.8 c 0.7 0 1.2 0.6 1.2 1.2 S 2 3.2 1.3 3.2 Z m 0 -2 c -0.4 0 -0.7 0.3 -0.7 0.7 c 0 0.4 0.3 0.7 0.7 0.7 c 0.4 0.1 0.7 -0.2 0.7 -0.6 c 0 -0.4 -0.3 -0.8 -0.7 -0.8 Z" /></g><g transform="translate(38 1)"><circle fill="#fff" cx="1.3" cy="1" r="0.7" /><path fill="#4a4a4a" d="M 1.3 1.9 C 0.8 1.9 0.4 1.5 0.4 1 s 0.4 -1 0.9 -1 s 0.9 0.4 0.9 0.9 s -0.4 1 -0.9 1 Z m 0 -1.4 C 1.1 0.5 0.9 0.7 0.9 0.9 s 0.2 0.4 0.4 0.4 s 0.4 -0.2 0.4 -0.4 s -0.2 -0.4 -0.4 -0.4 Z" /></g><g transform="translate(38)"><ellipse fill="#fff" cx="1.3" cy="0.8" rx="0.3" ry="0.6" /><path fill="#4a4a4a" d="M 1.3 1.6 C 1 1.6 0.7 1.2 0.7 0.8 S 1 0 1.3 0 s 0.6 0.4 0.6 0.8 s -0.2 0.8 -0.6 0.8 Z m 0 -1.1 s -0.1 0.1 -0.1 0.3 c 0 0.2 0.1 0.3 0.1 0.3 s 0.1 -0.1 0.1 -0.3 c 0 -0.2 0 -0.3 -0.1 -0.3 Z" /></g><g transform="translate(43 2)"><circle fill="#fff" cx="1.3" cy="2" r="1" /><path fill="#4a4a4a" d="M 1.3 3.2 C 0.6 3.2 0.1 2.6 0.1 2 S 0.7 0.8 1.3 0.8 c 0.7 0 1.2 0.6 1.2 1.2 S 2 3.2 1.3 3.2 Z m 0 -2 c -0.4 0 -0.7 0.3 -0.7 0.7 c 0 0.4 0.3 0.7 0.7 0.7 c 0.4 0 0.7 -0.3 0.7 -0.7 c 0 -0.4 -0.3 -0.7 -0.7 -0.7 Z" /></g><g transform="translate(43 1)"><circle fill="#fff" cx="1.3" cy="1" r="0.7" /><path fill="#4a4a4a" d="M 1.3 1.9 C 0.8 1.9 0.4 1.5 0.4 1 s 0.4 -1 0.9 -1 s 0.9 0.4 0.9 0.9 s -0.4 1 -0.9 1 Z m 0 -1.4 C 1.1 0.5 0.9 0.7 0.9 0.9 s 0.2 0.4 0.4 0.4 s 0.4 -0.2 0.4 -0.4 s -0.1 -0.4 -0.4 -0.4 Z" /></g><g transform="translate(43)"><ellipse fill="#fff" cx="1.3" cy="0.8" rx="0.3" ry="0.6" /><path fill="#4a4a4a" d="M 1.3 1.6 C 1 1.6 0.7 1.2 0.7 0.8 S 1 0 1.3 0 s 0.6 0.4 0.6 0.8 s -0.2 0.8 -0.6 0.8 Z m 0 -1.1 s -0.1 0.1 -0.1 0.3 c 0 0.2 0.1 0.3 0.1 0.3 s 0.1 -0.1 0.1 -0.3 c 0 -0.2 0 -0.3 -0.1 -0.3 Z" /></g><g transform="translate(34 49)"><path fill="#fff" d="M 1 0.6 h 8 v 7.2 H 1 Z" /><path fill="#4a4a4a" d="M 9 8.3 H 1 c -0.3 0 -0.5 -0.2 -0.5 -0.5 V 0.6 C 0.5 0.3 0.7 0.1 1 0.1 h 8 c 0.3 0 0.5 0.2 0.5 0.5 v 7.2 c 0 0.3 -0.2 0.5 -0.5 0.5 Z m -7.5 -1 h 7 V 1.1 h -7 v 6.2 Z" /></g><g transform="translate(35 37)"><path fill="#fff" d="M 0.7 0.8 h 6.6 v 6.6 H 0.7 Z" /><path fill="#4a4a4a" d="M 7.3 7.9 H 0.7 c -0.3 0 -0.5 -0.2 -0.5 -0.5 V 0.8 C 0.2 0.5 0.4 0.3 0.7 0.3 h 6.6 c 0.3 0 0.5 0.2 0.5 0.5 v 6.6 c 0 0.3 -0.2 0.5 -0.5 0.5 Z m -6.1 -1 h 5.6 V 1.3 H 1.2 v 5.6 Z" /></g><g transform="translate(35 27)"><path fill="#fff" d="M 1.2 1.4 h 5.2 v 5.9 H 1.2 Z" /><path fill="#4a4a4a" d="M 6.4 7.7 H 1.2 c -0.3 0 -0.5 -0.2 -0.5 -0.5 V 1.3 c 0 -0.3 0.2 -0.5 0.5 -0.5 h 5.2 c 0.3 0 0.5 0.2 0.5 0.5 v 5.9 c 0 0.3 -0.2 0.5 -0.5 0.5 Z m -4.7 -1 h 4.2 V 1.8 H 1.7 v 4.9 Z" /></g><g transform="translate(36 19)"><path fill="#fff" d="M 1.2 1.4 h 3.2 V 5 H 1.2 Z" /><path fill="#4a4a4a" d="M 4.4 5.5 H 1.2 C 0.9 5.5 0.7 5.3 0.7 5 V 1.4 c 0 -0.3 0.2 -0.5 0.5 -0.5 h 3.2 c 0.3 0 0.5 0.2 0.5 0.5 V 5 c 0 0.2 -0.2 0.5 -0.5 0.5 Z m -2.7 -1 h 2.2 V 1.9 H 1.7 v 2.6 Z" /></g><path fill="#4a4a4a" d="M 10.9 76.8 c -0.3 0 -0.5 -0.2 -0.5 -0.5 V 61.6 c 0 -0.3 0.2 -0.5 0.5 -0.5 s 0.5 0.2 0.5 0.5 v 14.7 c 0 0.3 -0.2 0.5 -0.5 0.5 Z M 19.4 76.8 c -0.3 0 -0.5 -0.2 -0.5 -0.5 V 61.6 c 0 -0.3 0.2 -0.5 0.5 -0.5 s 0.5 0.2 0.5 0.5 v 14.7 c 0 0.3 -0.2 0.5 -0.5 0.5 Z M 56.8 76.8 c -0.3 0 -0.5 -0.2 -0.5 -0.5 V 61.6 c 0 -0.3 0.2 -0.5 0.5 -0.5 s 0.5 0.2 0.5 0.5 v 14.7 c 0 0.3 -0.2 0.5 -0.5 0.5 Z M 64.8 76.8 c -0.3 0 -0.5 -0.2 -0.5 -0.5 V 61.6 c 0 -0.3 0.2 -0.5 0.5 -0.5 s 0.5 0.2 0.5 0.5 v 14.7 c 0 0.3 -0.2 0.5 -0.5 0.5 Z" /></g></svg>