<svg xmlns="http://www.w3.org/2000/svg" enable-background="new 0 0 100 100" viewBox="0 0 100 100" x="0px" y="0px" xmlns:xml="http://www.w3.org/XML/1998/namespace" xml:space="preserve" version="1.1">   <circle fill="#32a899" cx="49.5" cy="59.1" r="38" /><path fill="#4a4a4a" d="M 49.5 97.4 c -10.2 0 -19.9 -4 -27.1 -11.2 S 11.2 69.3 11.2 59.1 s 4 -19.9 11.2 -27.1 s 16.9 -11.2 27.1 -11.2 s 19.9 4 27.1 11.2 s 11.2 16.9 11.2 27.1 s -4 19.9 -11.2 27.1 s -16.8 11.2 -27.1 11.2 Z m 0 -75.9 c -10 0 -19.5 3.9 -26.6 11 s -11 16.5 -11 26.6 s 3.9 19.5 11 26.6 s 16.5 11 26.6 11 s 19.5 -3.9 26.6 -11 s 11 -16.5 11 -26.6 s -3.9 -19.5 -11 -26.6 s -16.6 -11 -26.6 -11 Z" /><path fill="#fff" d="M 25.3 62.1 h 15.4 v 18.6 H 25.3 Z" /><path fill="#4a4a4a" d="M 40.6 81.1 H 25.3 c -0.2 0 -0.4 -0.2 -0.4 -0.4 V 62.1 c 0 -0.2 0.2 -0.4 0.4 -0.4 h 15.4 c 0.2 0 0.4 0.2 0.4 0.4 v 18.6 c -0.1 0.2 -0.2 0.4 -0.5 0.4 Z m -15 -0.8 h 14.6 V 62.5 H 25.6 v 17.8 Z" /><path fill="#fff" d="M 40.6 62.1 H 25.2 L 20 53.4 h 25.9 Z" /><path fill="#4a4a4a" d="M 40.6 62.5 H 25.2 c -0.1 0 -0.3 -0.1 -0.3 -0.2 l -5.2 -8.6 c -0.1 -0.1 -0.1 -0.3 0 -0.4 c 0.1 -0.1 0.2 -0.2 0.3 -0.2 h 26 c 0.1 0 0.3 0.1 0.3 0.2 c 0.1 0.1 0.1 0.3 0 0.4 l -5.4 8.6 c -0.1 0.1 -0.2 0.2 -0.3 0.2 Z m -15.2 -0.8 h 15 l 4.9 -7.9 H 20.6 l 4.8 7.9 Z" /><path fill="#fff" d="M 40.6 39.8 H 25.2 l -3.3 -4.7 h 22.2 Z" /><path fill="#4a4a4a" d="M 40.6 40.2 H 25.2 c -0.1 0 -0.2 -0.1 -0.3 -0.2 l -3.3 -4.7 c -0.1 -0.1 -0.1 -0.3 0 -0.4 c 0.1 -0.1 0.2 -0.2 0.3 -0.2 h 22.2 c 0.1 0 0.3 0.1 0.3 0.2 c 0.1 0.1 0.1 0.3 0 0.4 L 40.9 40 c -0.1 0.1 -0.2 0.2 -0.3 0.2 Z m -15.2 -0.8 h 15 l 2.9 -4 H 22.6 l 2.8 4 Z" /><path fill="#fff" d="M 25.3 39.8 h 15.4 v 13.6 H 25.3 Z" /><path fill="#4a4a4a" d="M 40.6 53.8 H 25.3 c -0.2 0 -0.4 -0.2 -0.4 -0.4 V 39.8 c 0 -0.2 0.2 -0.4 0.4 -0.4 h 15.4 c 0.2 0 0.4 0.2 0.4 0.4 v 13.6 c -0.1 0.3 -0.2 0.4 -0.5 0.4 Z m -15 -0.7 h 14.6 V 40.2 H 25.6 v 12.9 Z" /><path fill="#fff" d="M 26.1 20.4 h 13.7 v 14.7 H 26.1 Z" /><path fill="#4a4a4a" d="M 39.8 35.5 H 26.1 c -0.2 0 -0.4 -0.2 -0.4 -0.4 V 20.4 c 0 -0.2 0.2 -0.4 0.4 -0.4 h 13.7 c 0.2 0 0.4 0.2 0.4 0.4 v 14.7 c 0 0.2 -0.2 0.4 -0.4 0.4 Z m -13.3 -0.8 h 12.9 V 20.8 H 26.5 v 13.9 Z" /><path fill="#4a4a4a" d="M 41.3 20.8 H 24.6 c -0.2 0 -0.4 -0.2 -0.4 -0.4 s 0.2 -0.4 0.4 -0.4 h 16.8 c 0.2 0 0.4 0.2 0.4 0.4 c -0.1 0.2 -0.2 0.4 -0.5 0.4 Z M 39.8 17.6 H 26.1 c -0.2 0 -0.4 -0.2 -0.4 -0.4 s 0.2 -0.4 0.4 -0.4 h 13.8 c 0.2 0 0.4 0.2 0.4 0.4 s -0.3 0.4 -0.5 0.4 Z M 37.9 14.5 H 28 c -0.2 0 -0.4 -0.2 -0.4 -0.4 s 0.2 -0.4 0.4 -0.4 h 10 c 0.2 0 0.4 0.2 0.4 0.4 c -0.1 0.2 -0.2 0.4 -0.5 0.4 Z M 35.5 11.3 h -5.1 c -0.2 0 -0.4 -0.2 -0.4 -0.4 s 0.2 -0.4 0.4 -0.4 h 5.1 c 0.2 0 0.4 0.2 0.4 0.4 s -0.2 0.4 -0.4 0.4 Z M 34.2 8.2 h -2.5 c -0.2 0 -0.4 -0.2 -0.4 -0.4 s 0.2 -0.4 0.4 -0.4 h 2.5 c 0.2 0 0.4 0.2 0.4 0.4 s -0.2 0.4 -0.4 0.4 Z M 34.9 81.1 H 31 c -0.2 0 -0.4 -0.2 -0.4 -0.4 v -8.5 c 0 -0.2 0.2 -0.4 0.4 -0.4 h 3.9 c 0.2 0 0.4 0.2 0.4 0.4 v 8.5 c 0 0.2 -0.2 0.4 -0.4 0.4 Z m -3.5 -0.8 h 3.2 v -7.7 h -3.2 v 7.7 Z M 32.7 53.8 h -3.3 c -0.2 0 -0.4 -0.2 -0.4 -0.4 v -6.2 c 0 -0.2 0.2 -0.4 0.4 -0.4 h 3.3 c 0.2 0 0.4 0.2 0.4 0.4 v 6.2 c 0 0.3 -0.2 0.4 -0.4 0.4 Z m -2.9 -0.7 h 2.6 v -5.5 h -2.6 v 5.5 Z M 32.9 35.5 h -3.7 c -0.2 0 -0.4 -0.2 -0.4 -0.4 v -6.5 c 0 -0.2 0.2 -0.4 0.4 -0.4 h 3.7 c 0.2 0 0.4 0.2 0.4 0.4 v 6.5 c 0 0.2 -0.2 0.4 -0.4 0.4 Z m -3.3 -0.8 h 2.9 V 29 h -2.9 v 5.7 Z M 40.6 44.3 H 25.3 c -0.2 0 -0.4 -0.2 -0.4 -0.4 s 0.2 -0.4 0.4 -0.4 h 15.4 c 0.2 0 0.4 0.2 0.4 0.4 c -0.1 0.2 -0.2 0.4 -0.5 0.4 Z M 40.6 66.2 H 25.3 c -0.2 0 -0.4 -0.2 -0.4 -0.4 s 0.2 -0.4 0.4 -0.4 h 15.4 c 0.2 0 0.4 0.2 0.4 0.4 s -0.2 0.4 -0.5 0.4 Z M 38.2 85.4 H 27.7 c -0.2 0 -0.4 -0.2 -0.4 -0.4 s 0.2 -0.4 0.4 -0.4 h 10.5 c 0.2 0 0.4 0.2 0.4 0.4 s -0.2 0.4 -0.4 0.4 Z M 38.2 58.1 H 27.7 c -0.2 0 -0.4 -0.2 -0.4 -0.4 s 0.2 -0.4 0.4 -0.4 h 10.5 c 0.2 0 0.4 0.2 0.4 0.4 c 0 0.3 -0.2 0.4 -0.4 0.4 Z" /><path fill="#fff" d="M 59.5 62.1 h 15.4 v 18.6 H 59.5 Z" /><path fill="#4a4a4a" d="M 74.9 81.1 H 59.5 c -0.2 0 -0.4 -0.2 -0.4 -0.4 V 62.1 c 0 -0.2 0.2 -0.4 0.4 -0.4 h 15.4 c 0.2 0 0.4 0.2 0.4 0.4 v 18.6 c 0 0.2 -0.2 0.4 -0.4 0.4 Z m -15 -0.8 h 14.6 V 62.5 H 59.9 v 17.8 Z" /><path fill="#fff" d="M 74.8 62.1 H 59.4 l -5.2 -8.7 h 26 Z" /><path fill="#4a4a4a" d="M 74.8 62.5 H 59.4 c -0.1 0 -0.3 -0.1 -0.3 -0.2 l -5.2 -8.6 c -0.1 -0.1 -0.1 -0.3 0 -0.4 c 0.1 -0.1 0.2 -0.2 0.3 -0.2 h 26 c 0.1 0 0.3 0.1 0.3 0.2 c 0.1 0.1 0.1 0.3 0 0.4 l -5.4 8.6 c 0 0.1 -0.2 0.2 -0.3 0.2 Z m -15.2 -0.8 h 15 l 4.9 -7.9 H 54.9 l 4.7 7.9 Z" /><path fill="#fff" d="M 74.8 39.8 H 59.4 l -3.3 -4.7 h 22.2 Z" /><path fill="#4a4a4a" d="M 74.8 40.2 H 59.4 c -0.1 0 -0.2 -0.1 -0.3 -0.2 l -3.3 -4.7 c -0.1 -0.1 -0.1 -0.3 0 -0.4 c 0.1 -0.1 0.2 -0.2 0.3 -0.2 h 22.2 c 0.1 0 0.3 0.1 0.3 0.2 c 0.1 0.1 0.1 0.3 0 0.4 L 75.1 40 c 0 0.1 -0.2 0.2 -0.3 0.2 Z m -15.2 -0.8 h 15 l 2.9 -4 H 56.8 l 2.8 4 Z" /><path fill="#fff" d="M 59.5 39.8 h 15.4 v 13.6 H 59.5 Z" /><path fill="#4a4a4a" d="M 74.9 53.8 H 59.5 c -0.2 0 -0.4 -0.2 -0.4 -0.4 V 39.8 c 0 -0.2 0.2 -0.4 0.4 -0.4 h 15.4 c 0.2 0 0.4 0.2 0.4 0.4 v 13.6 c 0 0.3 -0.2 0.4 -0.4 0.4 Z m -15 -0.7 h 14.6 V 40.2 H 59.9 v 12.9 Z" /><path fill="#fff" d="M 60.3 20.4 H 74 v 14.7 H 60.3 Z" /><path fill="#4a4a4a" d="M 74 35.5 H 60.3 c -0.2 0 -0.4 -0.2 -0.4 -0.4 V 20.4 c 0 -0.2 0.2 -0.4 0.4 -0.4 H 74 c 0.2 0 0.4 0.2 0.4 0.4 v 14.7 c 0 0.2 -0.2 0.4 -0.4 0.4 Z m -13.3 -0.8 h 12.9 V 20.8 H 60.7 v 13.9 Z" /><path fill="#4a4a4a" d="M 75.6 20.8 H 58.8 c -0.2 0 -0.4 -0.2 -0.4 -0.4 s 0.2 -0.4 0.4 -0.4 h 16.8 c 0.2 0 0.4 0.2 0.4 0.4 s -0.2 0.4 -0.4 0.4 Z M 74.1 17.6 H 60.3 c -0.2 0 -0.4 -0.2 -0.4 -0.4 s 0.2 -0.4 0.4 -0.4 h 13.8 c 0.2 0 0.4 0.2 0.4 0.4 s -0.2 0.4 -0.4 0.4 Z M 72.2 14.5 h -10 c -0.2 0 -0.4 -0.2 -0.4 -0.4 s 0.2 -0.4 0.4 -0.4 h 10 c 0.2 0 0.4 0.2 0.4 0.4 s -0.2 0.4 -0.4 0.4 Z M 69.8 11.3 h -5.1 c -0.2 0 -0.4 -0.2 -0.4 -0.4 s 0.2 -0.4 0.4 -0.4 h 5.1 c 0.2 0 0.4 0.2 0.4 0.4 c -0.1 0.2 -0.2 0.4 -0.4 0.4 Z M 68.4 8.2 h -2.5 c -0.2 0 -0.4 -0.2 -0.4 -0.4 s 0.2 -0.4 0.4 -0.4 h 2.5 c 0.2 0 0.4 0.2 0.4 0.4 s -0.2 0.4 -0.4 0.4 Z M 69.1 81.1 h -3.9 c -0.2 0 -0.4 -0.2 -0.4 -0.4 v -8.5 c 0 -0.2 0.2 -0.4 0.4 -0.4 h 3.9 c 0.2 0 0.4 0.2 0.4 0.4 v 8.5 c 0 0.2 -0.1 0.4 -0.4 0.4 Z m -3.5 -0.8 h 3.2 v -7.7 h -3.2 v 7.7 Z M 67 53.8 h -3.3 c -0.2 0 -0.4 -0.2 -0.4 -0.4 v -6.2 c 0 -0.2 0.2 -0.4 0.4 -0.4 H 67 c 0.2 0 0.4 0.2 0.4 0.4 v 6.2 c -0.1 0.3 -0.2 0.4 -0.4 0.4 Z m -3 -0.7 h 2.6 v -5.5 H 64 v 5.5 Z M 67.1 35.5 h -3.7 c -0.2 0 -0.4 -0.2 -0.4 -0.4 v -6.5 c 0 -0.2 0.2 -0.4 0.4 -0.4 h 3.7 c 0.2 0 0.4 0.2 0.4 0.4 v 6.5 c 0 0.2 -0.2 0.4 -0.4 0.4 Z m -3.3 -0.8 h 2.9 V 29 h -2.9 v 5.7 Z M 74.9 44.3 H 59.5 c -0.2 0 -0.4 -0.2 -0.4 -0.4 s 0.2 -0.4 0.4 -0.4 h 15.4 c 0.2 0 0.4 0.2 0.4 0.4 s -0.2 0.4 -0.4 0.4 Z M 74.9 66.2 H 59.5 c -0.2 0 -0.4 -0.2 -0.4 -0.4 s 0.2 -0.4 0.4 -0.4 h 15.4 c 0.2 0 0.4 0.2 0.4 0.4 s -0.2 0.4 -0.4 0.4 Z M 72.4 85.4 H 61.9 c -0.2 0 -0.4 -0.2 -0.4 -0.4 s 0.2 -0.4 0.4 -0.4 h 10.5 c 0.2 0 0.4 0.2 0.4 0.4 s -0.2 0.4 -0.4 0.4 Z M 72.4 58.1 H 61.9 c -0.2 0 -0.4 -0.2 -0.4 -0.4 s 0.2 -0.4 0.4 -0.4 h 10.5 c 0.2 0 0.4 0.2 0.4 0.4 c 0 0.3 -0.2 0.4 -0.4 0.4 Z" /><g><path fill="#fff" d="M 27.2 89.7 c 3.9 2.8 8.4 4.9 13.2 6.2 v -6.2 H 27.2 Z" /><path fill="#4a4a4a" d="M 40.4 96.2 C 35.5 95 31 92.9 27 90 c -0.1 -0.1 -0.2 -0.3 -0.1 -0.4 c 0.1 -0.2 0.2 -0.3 0.4 -0.3 h 13.2 c 0.2 0 0.4 0.2 0.4 0.4 v 6.2 c 0 0.1 -0.1 0.2 -0.1 0.3 h -0.4 Z m -12 -6.1 c 3.6 2.4 7.5 4.2 11.6 5.3 v -5.3 H 28.4 Z" /></g><g><path fill="#fff" d="M 45.9 80.7 H 18.8 l 2.1 3.4 c 1.9 2.1 4 3.9 6.3 5.6 h 13.2 l 5.5 -9 Z" /><path fill="#4a4a4a" d="M 40.4 90.1 H 27.2 c -0.1 0 -0.2 0 -0.2 -0.1 c -2.3 -1.6 -4.4 -3.5 -6.3 -5.6 v -0.1 l -2.1 -3.4 c -0.1 -0.1 -0.1 -0.3 0 -0.4 s 0.2 -0.2 0.3 -0.2 H 46 c 0.1 0 0.3 0.1 0.3 0.2 c 0.1 0.1 0.1 0.3 0 0.4 l -5.6 9 c -0.1 0.1 -0.2 0.2 -0.3 0.2 Z m -13.1 -0.8 h 12.8 l 5.1 -8.2 H 19.5 l 1.7 2.8 c 1.9 2 3.9 3.8 6.1 5.4 Z" /></g><g><path fill="#fff" d="M 59.5 95.3 c 4.6 -1.2 9 -3.2 12.7 -5.9 H 59.5 v 5.9 Z" /><path fill="#4a4a4a" d="M 59.5 95.7 c -0.1 0 -0.2 0 -0.2 -0.1 c -0.1 -0.1 -0.1 -0.2 -0.1 -0.3 v -5.9 c 0 -0.2 0.2 -0.4 0.4 -0.4 h 12.7 c 0.2 0 0.3 0.1 0.4 0.3 c 0.1 0.2 0 0.3 -0.1 0.4 c -4 2.8 -8.4 4.8 -13.1 6 c 0.1 0 0 0 0 0 Z m 0.4 -6 v 5.1 c 4 -1.1 7.7 -2.8 11.2 -5.1 H 59.9 Z" /></g><g><path fill="#fff" d="M 78.2 84.2 l 2.2 -3.5 H 54.2 l 5.3 8.7 h 12.8 c 2.1 -1.6 4.1 -3.3 5.9 -5.2 Z" /><path fill="#4a4a4a" d="M 72.3 89.7 H 59.5 c -0.1 0 -0.3 -0.1 -0.3 -0.2 l -5.3 -8.7 c -0.1 -0.1 -0.1 -0.3 0 -0.4 s 0.2 -0.2 0.3 -0.2 h 26.1 c 0.1 0 0.3 0.1 0.3 0.2 c 0.1 0.1 0.1 0.3 0 0.4 l -2.2 3.5 v 0.1 c -1.8 2 -3.8 3.7 -5.9 5.3 h -0.2 Z M 59.7 89 h 12.5 c 2.1 -1.5 4 -3.2 5.7 -5.1 l 1.8 -2.9 H 54.9 l 4.8 8 Z" /></g></svg>