<svg xmlns="http://www.w3.org/2000/svg" enable-background="new 0 0 100 100" viewBox="0 0 100 100" x="0px" y="0px" xmlns:xml="http://www.w3.org/XML/1998/namespace" xml:space="preserve" version="1.1">   <path fill="#f05251" d="M 85.5 38.3 c 3.4 5.7 5.3 12.3 5.3 19.4 c 0 21 -17.1 38.1 -38.1 38.1 S 14.6 78.7 14.6 57.7 c 0 -6.1 1.4 -11.8 3.9 -16.9" /><path fill="#4a4a4a" d="M 52.7 96.2 c -10.3 0 -19.9 -4 -27.2 -11.3 c -7.3 -7.3 -11.3 -16.9 -11.3 -27.2 c 0 -6 1.3 -11.7 4 -17 l 0.7 0.3 C 16.3 46.2 15 51.8 15 57.7 c 0 10.1 3.9 19.5 11 26.7 c 7.1 7.1 16.6 11 26.7 11 s 19.5 -3.9 26.7 -11 c 7.1 -7.1 11 -16.6 11 -26.7 c 0 -6.8 -1.8 -13.4 -5.2 -19.2 l 0.7 -0.4 c 3.5 5.9 5.3 12.7 5.3 19.6 c 0 10.3 -4 19.9 -11.3 27.2 c -7.3 7.3 -17 11.3 -27.2 11.3 Z" /><path fill="none" d="M 52.7 52.2 c -8.9 0 -9.8 9.7 -9.8 9.7 v 32.6 c 3.1 0.8 6.4 1.3 9.8 1.3 c 3.4 0 6.7 -0.4 9.8 -1.3 V 61.9 c -0.1 0 -0.9 -9.7 -9.8 -9.7 Z" /><path fill="#fff" d="M 83.2 80.5 l 0.1 -39.6 h 3.5 v -5.5 h -5.2 v -8 h -1.9 v -5.9 h -5 V 13 h -8.8 c -3.7 -5.7 -9.7 -6.4 -13.2 -6.4 s -9.5 0.7 -13.2 6.4 h -8.8 v 8.5 h -5 v 5.9 h -1.9 v 8 h -5.2 v 5.5 h 3.5 l 0.1 39.6 c 5.1 6.8 12.3 11.8 20.7 14 V 61.9 s 0.9 -9.7 9.8 -9.7 s 9.8 9.7 9.8 9.7 v 32.6 c 8.4 -2.2 15.6 -7.3 20.7 -14 Z" /><path fill="#4a4a4a" d="M 62.4 94.9 c -0.1 0 -0.2 0 -0.2 -0.1 c -0.1 -0.1 -0.1 -0.2 -0.1 -0.3 V 61.9 c 0 -0.2 -0.3 -2.5 -1.5 -4.7 c -1.7 -3.1 -4.4 -4.6 -7.9 -4.6 s -6.2 1.6 -7.9 4.7 c -1.2 2.2 -1.5 4.5 -1.5 4.7 v 32.6 c 0 0.1 -0.1 0.2 -0.1 0.3 c -0.1 0.1 -0.2 0.1 -0.3 0.1 c -8.3 -2.2 -15.8 -7.2 -20.9 -14.2 c 0 -0.1 -0.1 -0.1 -0.1 -0.2 l -0.1 -39.2 h -3.2 c -0.2 0 -0.4 -0.2 -0.4 -0.4 v -5.5 c 0 -0.2 0.2 -0.4 0.4 -0.4 h 4.9 v -7.6 c 0 -0.2 0.2 -0.4 0.4 -0.4 h 1.5 v -5.5 c 0 -0.2 0.2 -0.4 0.4 -0.4 h 4.6 v -8.1 c 0 -0.2 0.2 -0.4 0.4 -0.4 h 8.6 c 2.9 -4.2 7.4 -6.4 13.5 -6.4 s 10.6 2.1 13.5 6.4 H 75 c 0.2 0 0.4 0.2 0.4 0.4 V 21 H 80 c 0.2 0 0.4 0.2 0.4 0.4 v 5.5 h 1.5 c 0.2 0 0.4 0.2 0.4 0.4 V 35 h 4.9 c 0.2 0 0.4 0.2 0.4 0.4 v 5.5 c 0 0.2 -0.2 0.4 -0.4 0.4 H 84 l -0.1 39.2 c 0 0.1 0 0.2 -0.1 0.2 c -5.5 6.9 -12.9 12 -21.4 14.2 c 0.1 0 0.1 0 0 0 Z M 22.5 80.3 c 5 6.6 12.1 11.4 20 13.7 V 61.9 c 0 -0.1 0.2 -2.5 1.6 -5 c 1.3 -2.3 3.8 -5.1 8.6 -5.1 s 7.3 2.7 8.6 5.1 c 1.4 2.5 1.6 4.9 1.6 5 V 94 c 7.9 -2.2 15 -7.1 20 -13.7 l 0.1 -39.5 c 0 -0.2 0.2 -0.4 0.4 -0.4 h 3.2 v -4.7 h -4.9 c -0.2 0 -0.4 -0.2 -0.4 -0.4 v -7.6 h -1.5 c -0.2 0 -0.4 -0.2 -0.4 -0.4 v -5.5 h -4.6 c -0.2 0 -0.4 -0.2 -0.4 -0.4 v -8.1 H 66 c -0.1 0 -0.2 -0.1 -0.3 -0.2 c -2.8 -4.1 -7.2 -6.2 -13 -6.2 c -5.9 0 -10.2 2.1 -12.9 6.2 c -0.1 0.1 -0.2 0.2 -0.3 0.2 H 31 v 8.1 c 0 0.2 -0.2 0.4 -0.4 0.4 H 26 v 5.5 c 0 0.2 -0.2 0.4 -0.4 0.4 h -1.5 v 7.6 c 0 0.2 -0.2 0.4 -0.4 0.4 h -4.9 v 4.7 H 22 c 0.2 0 0.4 0.2 0.4 0.4 l 0.1 39.5 Z" /><circle fill="#fff" cx="73.2" cy="51.2" r="6.6" /><path fill="#4a4a4a" d="M 73.2 58.3 c -3.9 0 -7 -3.2 -7 -7 c 0 -3.9 3.2 -7 7 -7 c 3.9 0 7 3.2 7 7 s -3.2 7 -7 7 Z m 0 -13.3 c -3.5 0 -6.3 2.8 -6.3 6.3 s 2.8 6.3 6.3 6.3 s 6.3 -2.8 6.3 -6.3 c -0.1 -3.5 -2.9 -6.3 -6.3 -6.3 Z" /><circle fill="#fff" cx="32.6" cy="51.2" r="6.6" /><path fill="#4a4a4a" d="M 32.6 58.3 c -3.9 0 -7 -3.2 -7 -7 c 0 -3.9 3.2 -7 7 -7 c 3.9 0 7 3.2 7 7 s -3.1 7 -7 7 Z m 0 -13.3 c -3.5 0 -6.3 2.8 -6.3 6.3 s 2.8 6.3 6.3 6.3 s 6.3 -2.8 6.3 -6.3 s -2.8 -6.3 -6.3 -6.3 Z" /><g><path fill="#fff" d="M 48.8 44.6 h 7.7 h -7.7 Z" /><path fill="#4a4a4a" d="M 56.5 45 h -7.7 c -0.2 0 -0.4 -0.2 -0.4 -0.4 s 0.2 -0.4 0.4 -0.4 h 7.7 c 0.2 0 0.4 0.2 0.4 0.4 s -0.2 0.4 -0.4 0.4 Z" /></g><g><path fill="#fff" d="M 27.1 35.3 h 51.2 h -51.2 Z" /><path fill="#4a4a4a" d="M 78.3 35.6 H 27.1 c -0.2 0 -0.4 -0.2 -0.4 -0.4 s 0.2 -0.4 0.4 -0.4 h 51.2 c 0.2 0 0.4 0.2 0.4 0.4 s -0.2 0.4 -0.4 0.4 Z" /></g><path fill="#4a4a4a" d="M 73.2 58.3 c -3.9 0 -7 -3.2 -7 -7 c 0 -3.9 3.2 -7 7 -7 c 3.9 0 7 3.2 7 7 s -3.2 7 -7 7 Z m 0 -13.3 c -3.5 0 -6.3 2.8 -6.3 6.3 s 2.8 6.3 6.3 6.3 s 6.3 -2.8 6.3 -6.3 c -0.1 -3.5 -2.9 -6.3 -6.3 -6.3 Z" /></svg>