<svg xmlns="http://www.w3.org/2000/svg" enable-background="new 0 0 100 100" viewBox="0 0 100 100" x="0px" y="0px" xmlns:xml="http://www.w3.org/XML/1998/namespace" xml:space="preserve" version="1.1">   <path fill="#f05251" d="M 89.3 54.5 C 89.3 76.9 71.2 95 48.8 95 S 8.3 76.9 8.3 54.5 S 26.4 14 48.8 14 c 3.7 0 7.3 0.5 10.8 1.4 c 17.1 4.8 29.7 20.5 29.7 39.1 Z" /><path fill="#4a4a4a" d="M 48.8 95.5 c -10.9 0 -21.2 -4.3 -28.9 -12 s -12 -18 -12 -28.9 s 4.3 -21.2 12 -28.9 s 18 -12 28.9 -12 c 3.7 0 7.4 0.5 10.9 1.5 c 8.5 2.3 16.1 7.5 21.5 14.5 c 5.6 7.2 8.5 15.9 8.5 25 c 0 10.9 -4.3 21.2 -12 28.9 c -7.7 7.6 -18 11.9 -28.9 11.9 Z m 0 -81.1 c -10.7 0 -20.8 4.2 -28.4 11.8 c -7.6 7.5 -11.7 17.6 -11.7 28.3 s 4.2 20.8 11.8 28.4 s 17.7 11.8 28.4 11.8 s 20.8 -4.2 28.4 -11.8 c 7.6 -7.6 11.8 -17.7 11.8 -28.4 c 0 -9 -2.9 -17.4 -8.4 -24.5 c -5.3 -6.9 -12.8 -11.9 -21.1 -14.2 c -3.6 -0.9 -7.2 -1.4 -10.8 -1.4 Z" /><g><path fill="#fff" d="M 48.8 79.8 c -11.1 0 -17.4 -11 -17.4 -11 c -0.1 4.3 -2.1 4 -3.4 4.1 c -2.3 0.2 -1.9 -2.5 -1.8 -3.5 c 0.2 -3.4 -1.4 -7.7 -2.3 -10.1 c -1.2 -3.2 -1.5 -6.9 -1.4 -9.3 c 0.4 -6.6 4 -1.8 4 -1.8 s 0.2 1 -0.7 -1.9 c -0.8 -2.9 -0.8 -7.5 0 -15.3 s 6.1 -10.8 8.8 -13.4 c 2.7 -2.7 0.8 -2.9 3.1 -7.3 c 2.3 -4.3 8 -4.5 11 -4.5 s 8.7 0.2 11 4.5 s 0.4 4.6 3.1 7.3 s 7.9 5.7 8.8 13.4 c 0.8 7.8 0.8 12.3 0 15.3 c -0.8 2.9 -0.7 1.9 -0.7 1.9 s 3.7 -4.8 4 1.8 c 0.1 2.3 -0.2 6.1 -1.4 9.3 c -0.9 2.4 -2.5 6.7 -2.3 10.1 c 0.1 1 0.5 3.7 -1.8 3.5 c -1.3 -0.1 -3.3 0.2 -3.4 -4.1 c 0.2 0 -6.1 11 -17.2 11 Z" /><path fill="#4a4a4a" d="M 48.8 80.2 c -3.2 0 -8.1 -1 -13.1 -5.6 c -1.9 -1.8 -3.2 -3.5 -4 -4.6 c -0.4 3.1 -2.2 3.2 -3.3 3.2 h -0.3 c -0.7 0.1 -1.2 -0.1 -1.6 -0.5 c -0.8 -0.8 -0.7 -2.3 -0.6 -3.2 v -0.2 c 0.2 -3.4 -1.5 -7.8 -2.3 -9.9 c -1.2 -3.2 -1.5 -7.1 -1.4 -9.4 c 0.1 -2.3 0.7 -3.5 1.6 -3.8 c 0.6 -0.2 1.3 0.1 1.9 0.5 c 0 -0.1 -0.1 -0.2 -0.1 -0.3 c -0.9 -3 -0.9 -7.6 0 -15.4 c 0.7 -6.5 4.5 -9.8 7.2 -12.2 c 0.6 -0.5 1.2 -1 1.7 -1.5 c 1.3 -1.3 1.4 -2 1.6 -3 c 0.1 -0.9 0.3 -2.1 1.4 -4.2 c 2.5 -4.7 9 -4.7 11.4 -4.7 c 1.8 0 3.8 0.1 5.9 0.6 c 2.6 0.7 4.4 2.1 5.5 4.1 c 1.1 2.1 1.3 3.2 1.4 4.2 c 0.2 1 0.2 1.7 1.6 3 c 0.5 0.5 1 1 1.7 1.5 c 2.8 2.4 6.5 5.7 7.2 12.2 c 0.8 7.8 0.8 12.4 0 15.4 c 0 0.1 -0.1 0.2 -0.1 0.3 c 0.6 -0.4 1.2 -0.7 1.9 -0.5 c 1 0.3 1.5 1.5 1.6 3.8 s -0.2 6.2 -1.4 9.4 c -0.8 2.1 -2.5 6.5 -2.3 9.9 v 0.2 c 0.1 0.9 0.2 2.4 -0.6 3.2 c -0.4 0.4 -0.9 0.6 -1.6 0.5 h -0.3 c -1.2 -0.1 -2.9 -0.2 -3.3 -3.2 c -0.7 1.1 -2.1 2.8 -4 4.6 c -2.9 2.6 -7.5 5.6 -13.3 5.6 Z M 31.4 68.4 c 0.1 0 0.3 0.1 0.4 0.2 c 0 0 1.6 2.7 4.5 5.4 c 2.6 2.5 7 5.4 12.6 5.4 c 10.7 0 17 -10.7 17 -10.8 c 0.1 -0.2 0.3 -0.2 0.5 -0.2 s 0.3 0.2 0.3 0.4 c 0.1 3.5 1.4 3.6 2.7 3.7 h 0.3 c 0.4 0 0.8 -0.1 1 -0.3 c 0.5 -0.6 0.4 -1.8 0.4 -2.5 v -0.3 c -0.2 -3.6 1.5 -8.1 2.3 -10.3 c 1.2 -3.1 1.5 -6.8 1.3 -9.1 c -0.1 -2.4 -0.7 -3 -1 -3.1 c -0.6 -0.2 -1.6 0.7 -2.1 1.3 c -0.1 0.3 -0.2 0.6 -0.6 0.5 c -0.2 0 -0.4 -0.2 -0.3 -0.6 c 0 -0.1 0 -0.1 0.1 -0.2 l 0.1 -0.1 c 0.1 -0.3 0.2 -0.8 0.5 -1.7 c 0.8 -2.9 0.8 -7.4 0 -15.1 c -0.7 -6.2 -4.1 -9.2 -6.9 -11.7 c -0.6 -0.5 -1.2 -1 -1.7 -1.5 c -1.5 -1.5 -1.7 -2.4 -1.8 -3.4 c -0.1 -0.9 -0.3 -2 -1.3 -3.9 c -2 -3.8 -6.8 -4.3 -10.7 -4.3 s -8.6 0.5 -10.7 4.3 c -1 1.9 -1.2 3 -1.3 3.9 c -0.2 1.1 -0.3 1.9 -1.8 3.4 c -0.5 0.5 -1.1 1 -1.7 1.5 c -2.8 2.4 -6.3 5.5 -6.9 11.7 c -0.8 7.7 -0.8 12.2 0 15.1 c 0.3 0.9 0.4 1.4 0.5 1.7 c 0 0.1 0.1 0.1 0.1 0.1 c 0 0.1 0.1 0.1 0.1 0.2 c 0.1 0.4 -0.1 0.6 -0.3 0.6 c -0.3 0.1 -0.5 -0.2 -0.6 -0.5 c -0.5 -0.6 -1.5 -1.5 -2.1 -1.3 c -0.3 0.1 -0.9 0.6 -1 3.1 c -0.1 2.2 0.1 6 1.3 9.1 c 0.8 2.2 2.6 6.6 2.3 10.3 v 0.3 c -0.1 0.7 -0.2 2 0.4 2.5 c 0.2 0.2 0.5 0.3 1 0.3 h 0.3 c 1.3 -0.1 2.6 -0.1 2.7 -3.7 c -0.3 -0.2 -0.2 -0.3 0.1 -0.4 c -0.1 0 0 0 0 0 Z" /><g><path fill="#fff" d="M 26.6 48.2 s -0.1 -5.7 2.3 -11.3 c 0 0 3.7 -10.2 9.8 -9 c 4.2 0.8 14.2 0.7 17.1 -0.2 c 3.1 -1 8.7 -1.8 11.5 5.9 c 0 0 4.4 10.8 3.6 14.6" /><path fill="#4a4a4a" d="M 71 48.7 c -0.1 0 -0.1 0 0 0 c -0.3 -0.1 -0.4 -0.3 -0.4 -0.5 c 0.8 -3.6 -3.5 -14.3 -3.6 -14.4 c -2 -5.5 -5.6 -7.4 -11 -5.7 c -2.9 0.9 -13 1 -17.3 0.2 c -2.4 -0.5 -4.7 0.9 -6.8 3.9 c -1.6 2.3 -2.6 4.8 -2.6 4.9 c -2.4 5.5 -2.3 11.1 -2.3 11.1 c 0 0.2 -0.2 0.4 -0.4 0.4 s -0.4 -0.2 -0.4 -0.4 s -0.1 -5.8 2.4 -11.5 c 0.1 -0.2 1 -2.7 2.7 -5 c 2.3 -3.3 5 -4.7 7.6 -4.2 c 4.2 0.8 14.1 0.7 16.9 -0.2 c 5.8 -1.8 9.9 0.3 12 6.2 c 0.2 0.4 4.5 11 3.6 14.8 c -0.1 0.2 -0.2 0.4 -0.4 0.4 Z" /></g><g><path fill="#fff" d="M 51 44.1 s 5.8 -8.6 15.9 -2.1" /><path fill="#4a4a4a" d="M 51 44.5 c -0.1 0 -0.2 0 -0.2 -0.1 c -0.2 -0.1 -0.2 -0.4 -0.1 -0.6 c 0.1 -0.1 1.6 -2.3 4.3 -3.6 c 4.7 -2.3 9.2 -0.5 12.1 1.4 c 0.2 0.1 0.2 0.4 0.1 0.6 c -0.1 0.2 -0.4 0.2 -0.6 0.1 c -4 -2.6 -7.9 -3.1 -11.3 -1.4 c -2.6 1.3 -4 3.3 -4.1 3.4 c 0 0.2 -0.1 0.2 -0.2 0.2 Z" /><path fill="#fff" d="M 42.5 66.4 s 5.6 2.5 11.3 0" /><path fill="#4a4a4a" d="M 48.4 67.9 c -3.4 0 -5.8 -1.1 -6 -1.2 s -0.3 -0.3 -0.2 -0.5 s 0.3 -0.3 0.5 -0.2 c 0.1 0 5.5 2.4 11 0 c 0.2 -0.1 0.4 0 0.5 0.2 s 0 0.4 -0.2 0.5 c -1.9 0.9 -3.9 1.2 -5.6 1.2 Z" /><path fill="#fff" d="M 43.7 62.5 s 2 -1.5 3.1 -0.3 c 0 0 2 1.3 3.4 -0.1 c 0 0 1.8 -0.5 2.4 0.3" /><path fill="#4a4a4a" d="M 48.7 63.1 c -0.2 0 -0.5 0 -0.7 -0.1 c -0.7 -0.2 -1.3 -0.5 -1.3 -0.5 s -0.1 0 -0.1 -0.1 c -0.8 -0.9 -2.6 0.3 -2.6 0.3 c -0.2 0.1 -0.4 0.1 -0.6 -0.1 c -0.1 -0.2 -0.1 -0.4 0.1 -0.6 c 0.1 -0.1 2.3 -1.6 3.6 -0.3 c 0.3 0.2 1.8 1 2.9 -0.1 c 0 0 0.1 -0.1 0.2 -0.1 c 0.2 -0.1 2.1 -0.6 2.8 0.5 c 0.1 0.2 0.1 0.4 -0.1 0.6 c -0.2 0.1 -0.4 0.1 -0.6 -0.1 c -0.3 -0.4 -1.3 -0.3 -1.8 -0.2 c -0.5 0.6 -1.1 0.8 -1.8 0.8 Z" /><g><path fill="#fff" d="M 55.2 48.7 s 7 1.1 9.4 -1.4" /><path fill="#4a4a4a" d="M 58.6 49.4 c -1.8 0 -3.3 -0.2 -3.4 -0.2 c -0.2 0 -0.4 -0.2 -0.3 -0.5 s 0.2 -0.4 0.5 -0.3 c 0.1 0 6.8 1 9.1 -1.3 c 0.2 -0.2 0.4 -0.2 0.6 0 s 0.2 0.4 0 0.6 c -1.6 1.4 -4.3 1.7 -6.5 1.7 Z" /></g><g><path fill="#fff" d="M 46.6 44.1 s -5.8 -8.6 -15.9 -2.1" /><path fill="#4a4a4a" d="M 46.6 44.5 c -0.1 0 -0.3 -0.1 -0.3 -0.2 c 0 0 -1.5 -2.1 -4.1 -3.4 c -3.5 -1.7 -7.3 -1.2 -11.3 1.4 c -0.2 0.1 -0.4 0.1 -0.6 -0.1 c -0.1 -0.2 -0.1 -0.4 0.1 -0.6 c 3 -1.9 7.5 -3.7 12.1 -1.4 c 2.8 1.4 4.3 3.5 4.3 3.6 c 0.1 0.2 0.1 0.4 -0.1 0.6 c 0.1 0.1 0 0.1 -0.1 0.1 Z" /></g><g><path fill="#fff" d="M 42.3 48.7 s -7 1.1 -9.4 -1.4" /><path fill="#4a4a4a" d="M 39 49.4 c -2.2 0 -5 -0.3 -6.3 -1.7 c -0.2 -0.2 -0.2 -0.4 0 -0.6 c 0.2 -0.2 0.4 -0.2 0.6 0 c 2.2 2.2 9 1.3 9.1 1.3 c 0.2 0 0.4 0.1 0.5 0.3 c 0 0.2 -0.1 0.4 -0.3 0.5 c -0.3 0 -1.8 0.2 -3.6 0.2 Z" /></g></g></g></svg>