<svg xmlns="http://www.w3.org/2000/svg" enable-background="new 0 0 100 100" viewBox="0 0 100 100" x="0px" y="0px" xmlns:xml="http://www.w3.org/XML/1998/namespace" xml:space="preserve" version="1.1">   <circle fill="#53798a" cx="55.5" cy="53.9" r="40.8" /><path fill="#4a4a4a" d="M 55.5 95.1 c -11 0 -21.3 -4.3 -29.1 -12.1 S 14.3 64.9 14.3 53.9 s 4.3 -21.3 12.1 -29.1 s 18.1 -12.1 29.1 -12.1 S 76.9 17 84.6 24.8 c 7.8 7.8 12.1 18.1 12.1 29.1 S 92.4 75.2 84.6 83 S 66.5 95.1 55.5 95.1 Z m 0 -81.6 c -10.8 0 -20.9 4.2 -28.5 11.8 S 15.1 43.1 15.1 53.9 S 19.3 74.8 27 82.5 s 17.8 11.8 28.5 11.8 S 76.4 90.1 84 82.5 c 7.6 -7.6 11.8 -17.8 11.8 -28.5 s -4.1 -21 -11.7 -28.6 c -7.7 -7.7 -17.8 -11.9 -28.6 -11.9 Z" /><path fill="#fff" d="M 17.5 67.5 v -6 h 6.9 V 56 h -2.8 v -3.4 h 9.9 c 0 -10.5 2.9 -14.1 2.9 -14.1 c 4.7 -7.1 15 -8.7 15 -8.7 l 2.6 -4.4 h 0.9 V 10.6 h 0.4 V 7.3 l 1.8 -1.8 h 1.6 l 1.8 1.8 v 3.3 h 0.4 v 14.8 h 0.9 l 2.6 4.4 s 10.3 1.6 15 8.7 c 0 0 2.9 3.7 2.9 14.1 H 90 V 56 h -2.8 v 5.4 h 6.9 l -0.3 6.4" /><path fill="#4a4a4a" d="M 93.8 68.3 c -0.2 0 -0.4 -0.2 -0.4 -0.4 l 0.2 -5.9 h -6.5 c -0.2 0 -0.4 -0.2 -0.4 -0.4 V 56 c 0 -0.2 0.2 -0.4 0.4 -0.4 h 2.4 V 53 h -9.4 c -0.2 0 -0.4 -0.2 -0.4 -0.4 c 0 -10.1 -2.8 -13.9 -2.8 -13.9 c -4.5 -6.9 -14.6 -8.5 -14.7 -8.6 c -0.1 0 -0.2 -0.1 -0.3 -0.2 l -2.5 -4.2 h -0.6 c -0.2 0 -0.4 -0.2 -0.4 -0.4 V 11 c -0.2 0 -0.4 -0.2 -0.4 -0.4 V 7.5 L 56.5 6 h -1.3 l -1.5 1.5 v 3.1 c 0 0.2 -0.2 0.4 -0.4 0.4 v 14.4 c 0 0.2 -0.2 0.4 -0.4 0.4 h -0.6 L 49.9 30 c -0.1 0.1 -0.2 0.2 -0.3 0.2 s -10.2 1.7 -14.7 8.6 c 0 0 -2.8 3.7 -2.8 13.9 c 0 0.2 -0.2 0.4 -0.4 0.4 h -9.5 v 2.6 h 2.4 c 0.2 0 0.4 0.2 0.4 0.4 v 5.4 c 0 0.2 -0.2 0.4 -0.4 0.4 h -6.5 v 5.6 c 0 0.2 -0.2 0.4 -0.4 0.4 s -0.4 -0.2 -0.4 -0.4 v -6 c 0 -0.2 0.2 -0.4 0.4 -0.4 H 24 v -4.6 h -2.4 c -0.2 0 -0.4 -0.2 -0.4 -0.4 v -3.4 c 0 -0.2 0.2 -0.4 0.4 -0.4 h 9.5 c 0.1 -9.9 2.7 -13.7 3 -14 c 4.4 -6.7 13.6 -8.6 15.1 -8.9 l 2.5 -4.3 c 0.1 -0.1 0.2 -0.2 0.4 -0.2 h 0.5 V 10.6 c 0 -0.2 0.2 -0.4 0.4 -0.4 V 7.3 c 0 -0.1 0 -0.2 0.1 -0.3 l 1.8 -1.8 c 0.1 -0.1 0.2 -0.1 0.3 -0.1 h 1.6 c 0.1 0 0.2 0 0.3 0.1 L 58.8 7 c 0.1 0.1 0.1 0.2 0.1 0.3 v 2.9 c 0.2 0 0.4 0.2 0.4 0.4 V 25 h 0.5 c 0.1 0 0.3 0.1 0.4 0.2 l 2.5 4.3 c 1.5 0.3 10.7 2.1 15.1 8.9 c 0.2 0.3 2.9 4 3 14 H 90 c 0.2 0 0.4 0.2 0.4 0.4 V 56 c 0 0.2 -0.2 0.4 -0.4 0.4 h -2.4 V 61 h 6.5 c 0.1 0 0.2 0 0.3 0.1 c 0.1 0.1 0.1 0.2 0.1 0.3 l -0.3 6.4 c 0 0.3 -0.1 0.5 -0.4 0.5 Z" /><path fill="none" d="M 90.7 74.7 H 21.1" /><path fill="#4a4a4a" d="M 90.7 75.1 H 21.1 c -0.2 0 -0.4 -0.2 -0.4 -0.4 s 0.2 -0.4 0.4 -0.4 h 69.5 c 0.2 0 0.4 0.2 0.4 0.4 c 0.1 0.2 -0.1 0.4 -0.3 0.4 Z" /><path fill="none" d="M 52.9 25.3 h 5.9" /><path fill="#4a4a4a" d="M 58.8 25.7 h -5.9 c -0.2 0 -0.4 -0.2 -0.4 -0.4 s 0.2 -0.4 0.4 -0.4 h 5.9 c 0.2 0 0.4 0.2 0.4 0.4 s -0.1 0.4 -0.4 0.4 Z" /><path fill="none" d="M 51.9 20.6 h 8" /><path fill="#4a4a4a" d="M 59.9 21 h -8 c -0.2 0 -0.4 -0.2 -0.4 -0.4 s 0.2 -0.4 0.4 -0.4 h 8 c 0.2 0 0.4 0.2 0.4 0.4 s -0.2 0.4 -0.4 0.4 Z" /><path fill="none" d="M 51.9 15.5 h 8" /><path fill="#4a4a4a" d="M 59.9 15.9 h -8 c -0.2 0 -0.4 -0.2 -0.4 -0.4 s 0.2 -0.4 0.4 -0.4 h 8 c 0.2 0 0.4 0.2 0.4 0.4 s -0.2 0.4 -0.4 0.4 Z" /><g><path fill="none" d="M 52.9 10.6 h 5.9" /><path fill="#4a4a4a" d="M 58.8 11 h -5.9 c -0.2 0 -0.4 -0.2 -0.4 -0.4 s 0.2 -0.4 0.4 -0.4 h 5.9 c 0.2 0 0.4 0.2 0.4 0.4 c 0.1 0.2 -0.1 0.4 -0.4 0.4 Z" /></g><g><path fill="none" d="M 26.6 61.8 h 57.9" /><path fill="#4a4a4a" d="M 84.5 62.2 h -58 c -0.2 0 -0.4 -0.2 -0.4 -0.4 s 0.2 -0.4 0.4 -0.4 h 58 c 0.2 0 0.4 0.2 0.4 0.4 s -0.2 0.4 -0.4 0.4 Z" /></g><g><path fill="#fff" d="M 90.1 67.9 h -73 S 25.5 93.1 53 94.7 c 0 0 29.6 1.9 40.7 -26.8 h -3.6 Z" /><path fill="#4a4a4a" d="M 54.2 95.1 h -1.1 c -6.3 -0.4 -12.2 -2 -17.4 -4.9 c -4.2 -2.3 -7.9 -5.4 -11.2 -9.2 c -5.5 -6.6 -7.7 -12.9 -7.7 -13 s 0 -0.3 0.1 -0.4 s 0.2 -0.2 0.3 -0.2 h 76.7 c 0.1 0 0.3 0.1 0.3 0.2 c 0.1 0.1 0.1 0.3 0 0.4 c -2.6 6.6 -6.3 12.2 -11.2 16.5 c -3.9 3.5 -8.5 6.1 -13.6 8 c -6.7 2.3 -12.8 2.6 -15.2 2.6 Z M 17.8 68.3 c 0.6 1.7 2.9 6.9 7.4 12.2 c 3.2 3.7 6.9 6.8 10.9 9 c 5.1 2.8 10.8 4.5 17 4.8 c 0.1 0 7.5 0.4 16.1 -2.6 c 5.1 -1.8 9.5 -4.4 13.3 -7.8 c 4.6 -4.1 8.2 -9.3 10.7 -15.6 H 17.8 Z" /></g><g><path fill="none" d="M 31.6 52.6 h 48.6" /><path fill="#4a4a4a" d="M 80.2 53.1 H 31.6 c -0.2 0 -0.4 -0.2 -0.4 -0.4 s 0.2 -0.4 0.4 -0.4 h 48.6 c 0.2 0 0.4 0.2 0.4 0.4 s -0.2 0.4 -0.4 0.4 Z" /></g><g><path fill="none" d="M 37.6 47.4 h 36.3" /><path fill="#4a4a4a" d="M 73.9 47.8 H 37.6 c -0.2 0 -0.4 -0.2 -0.4 -0.4 s 0.2 -0.4 0.4 -0.4 h 36.2 c 0.2 0 0.4 0.2 0.4 0.4 c 0.1 0.2 -0.1 0.4 -0.3 0.4 Z" /></g><g><path fill="#53798a" d="M 30.5 86.1 h 49.8 s -8.2 7.7 -23.8 8.6 c 0 0 -16.8 0.4 -26 -8.6 Z" /><path fill="#4a4a4a" d="M 56.2 95.1 c -1.1 0 -4.8 -0.1 -9.3 -0.9 c -4.9 -0.9 -11.8 -3.1 -16.7 -7.8 c -0.1 -0.1 -0.2 -0.3 -0.1 -0.4 c 0.1 -0.2 0.2 -0.3 0.4 -0.3 h 49.8 c 0.2 0 0.3 0.1 0.4 0.3 c 0.1 0.2 0 0.3 -0.1 0.4 s -2.1 2 -6.1 4 c -3.7 1.9 -9.8 4.2 -17.9 4.7 h -0.4 Z m -24.6 -8.6 c 9.1 8.1 24.8 7.8 24.9 7.8 c 8 -0.5 13.9 -2.7 17.6 -4.6 c 2.5 -1.2 4.2 -2.5 5.1 -3.2 H 31.6 Z" /></g></svg>