<svg xmlns="http://www.w3.org/2000/svg" enable-background="new 0 0 100 100" viewBox="0 0 100 100" x="0px" y="0px" xmlns:xml="http://www.w3.org/XML/1998/namespace" xml:space="preserve" version="1.1">   <circle fill="#53798a" cx="49.5" cy="58.7" r="38.5" /><path fill="#4a4a4a" d="M 49.5 97.6 c -10.4 0 -20.2 -4 -27.5 -11.4 c -7.3 -7.3 -11.4 -17.1 -11.4 -27.5 s 4 -20.2 11.4 -27.5 c 7.3 -7.3 17.1 -11.4 27.5 -11.4 s 20.2 4 27.5 11.4 c 7.3 7.3 11.4 17.1 11.4 27.5 s -4 20.2 -11.4 27.5 c -7.3 7.4 -17.1 11.4 -27.5 11.4 Z m 0 -77 c -10.2 0 -19.8 4 -26.9 11.2 c -7.2 7.2 -11.2 16.8 -11.2 26.9 s 4 19.8 11.2 26.9 s 16.8 11.2 26.9 11.2 c 10.2 0 19.8 -4 26.9 -11.2 c 7.2 -7.2 11.2 -16.8 11.2 -26.9 s -4 -19.8 -11.2 -26.9 c -7.1 -7.2 -16.7 -11.2 -26.9 -11.2 Z" /><path fill="#fff" d="M 13.6 45.2 h 1.9 v -2.8 h 2.7 v 2.7 h 3.2 v -2.7 h 2.8 v 2.8 H 27 v -2.8 h 3.3 V 45 h 50.3 v -2.6 h 2.8 V 45 h 1.9 c 1.5 2.3 2.7 11.8 2.7 11.8 c 0.4 21.4 -13.8 31.4 -13.8 31.4 h -49 s -10.8 -7 -13.8 -24.2 c 0 0.1 -1.3 -10.8 2.2 -18.8 Z" /><path fill="#4a4a4a" d="M 74.3 88.6 H 25.2 c -0.1 0 -0.1 0 -0.2 -0.1 s -2.8 -1.8 -5.9 -5.7 c -2.8 -3.6 -6.5 -9.7 -8.1 -18.7 C 11 64 9.8 53 13.2 45 c 0.1 -0.1 0.2 -0.2 0.4 -0.2 h 1.5 v -2.4 c 0 -0.2 0.2 -0.4 0.4 -0.4 h 2.7 c 0.2 0 0.4 0.2 0.4 0.4 v 2.3 H 21 v -2.3 c 0 -0.2 0.2 -0.4 0.4 -0.4 h 2.8 c 0.2 0 0.4 0.2 0.4 0.4 v 2.4 h 2.1 v -2.4 c 0 -0.2 0.2 -0.4 0.4 -0.4 h 3.3 c 0.2 0 0.4 0.2 0.4 0.4 v 2.2 h 49.5 v -2.2 c 0 -0.2 0.2 -0.4 0.4 -0.4 h 2.8 c 0.2 0 0.4 0.2 0.4 0.4 v 2.3 h 1.5 c 0.1 0 0.3 0.1 0.3 0.2 c 1.5 2.4 2.7 11.6 2.7 12 c 0.2 11.2 -3.6 19.2 -6.8 24 c -3.5 5.2 -7 7.7 -7.1 7.8 c -0.1 -0.1 -0.1 -0.1 -0.2 -0.1 Z m -49 -0.7 h 48.9 c 0.6 -0.4 3.8 -2.9 6.9 -7.5 c 3.1 -4.7 6.8 -12.5 6.6 -23.5 c -0.1 -0.5 -1.1 -9 -2.5 -11.5 h -1.7 c -0.2 0 -0.4 -0.2 -0.4 -0.4 v -2.3 H 81 V 45 c 0 0.2 -0.2 0.4 -0.4 0.4 H 30.3 c -0.2 0 -0.4 -0.2 -0.4 -0.4 v -2.2 h -2.5 v 2.4 c 0 0.2 -0.2 0.4 -0.4 0.4 h -2.9 c -0.2 0 -0.4 -0.2 -0.4 -0.4 v -2.4 h -2 v 2.3 c 0 0.2 -0.2 0.4 -0.4 0.4 h -3.2 c -0.2 0 -0.4 -0.2 -0.4 -0.4 v -2.3 h -2 v 2.4 c 0 0.2 -0.2 0.4 -0.4 0.4 h -1.6 c -3.2 7.7 -2.1 18.1 -2.1 18.5 c 1.5 8.8 5.1 14.8 7.9 18.3 c 2.9 3.4 5.3 5.1 5.8 5.5 Z" /><path fill="#fff" d="M 64.7 63.5 V 20.8 h -1.4 v -2.3 h -1.1 V 9.8 H 67 v 1.8 h 2.5 V 9.9 h 1.3 V 8 h 3.8 v 1.8 l 5.7 0.1 v 8.5 h -0.9 v 2.2 h -1.2 v 60.7 h -5.1" /><path fill="#4a4a4a" d="M 78.2 81.7 h -5.1 c -0.2 0 -0.4 -0.2 -0.4 -0.4 s 0.2 -0.4 0.4 -0.4 h 4.7 V 20.6 c 0 -0.2 0.2 -0.4 0.4 -0.4 h 0.8 v -1.8 c 0 -0.2 0.2 -0.4 0.4 -0.4 h 0.5 v -7.8 h -5.4 c -0.2 0 -0.4 -0.2 -0.4 -0.4 V 8.4 h -3 v 1.5 c 0 0.2 -0.2 0.4 -0.4 0.4 h -1 v 1.3 c 0 0.2 -0.2 0.4 -0.4 0.4 H 67 c -0.2 0 -0.4 -0.2 -0.4 -0.4 v -1.4 h -4 v 7.9 h 0.7 c 0.2 0 0.4 0.2 0.4 0.4 v 2 h 1 c 0.2 0 0.4 0.2 0.4 0.4 v 42.7 c 0 0.2 -0.2 0.4 -0.4 0.4 s -0.4 -0.2 -0.4 -0.4 V 21.2 h -1 c -0.2 0 -0.4 -0.2 -0.4 -0.4 v -2 h -0.7 c -0.2 0 -0.4 -0.2 -0.4 -0.4 V 9.8 c 0 -0.2 0.2 -0.4 0.4 -0.4 H 67 c 0.2 0 0.4 0.2 0.4 0.4 v 1.4 h 1.7 V 9.9 c 0 -0.2 0.2 -0.4 0.4 -0.4 h 1 V 8 c 0 -0.2 0.2 -0.4 0.4 -0.4 h 3.8 c 0.1 0 0.3 0.2 0.3 0.4 v 1.5 h 5.4 c 0.2 0 0.4 0.2 0.4 0.4 v 8.6 c 0 0.2 -0.2 0.4 -0.4 0.4 h -0.5 v 1.8 c 0 0.2 -0.2 0.4 -0.4 0.4 h -0.8 v 60.2 c -0.1 0.2 -0.3 0.4 -0.5 0.4 Z" /><path fill="#4a4a4a" d="M 74 21.1 h -5.3 c -0.2 0 -0.4 -0.2 -0.4 -0.4 s 0.2 -0.4 0.4 -0.4 H 74 c 0.2 0 0.4 0.2 0.4 0.4 s -0.2 0.4 -0.4 0.4 Z" /><path fill="#fff" d="M 29.2 64.5 s 4.7 -0.1 5.7 3.8 v 20 H 41 V 68.1 s 1.6 -3.7 5.7 -3.6 h 0.2 c 4.2 -0.1 5.7 3.6 5.7 3.6 v 20.1 h 6.1 v -20 c 1 -3.9 5.7 -3.8 5.7 -3.8 c 4.5 0 5.9 3.8 5.9 3.8 v 20 h 2.9 V 59.3 H 72 V 49 l 1.2 -0.1 l -8.6 -2.8 v -6.7 l 1.5 -3.1 h -7 C 52.2 32.4 47 31.6 47 31.6 h -0.2 s -5.2 0.8 -12.1 4.7 h -7 l 1.5 3.1 v 6.7 l -8.6 2.8 l 1.2 0.1 v 10.3 h -1.4 v 24.4 c 0.9 1.1 1.9 2.1 2.9 3 V 68.3 c 0.1 0 1.5 -3.8 5.9 -3.8 Z" /><path fill="#4a4a4a" d="M 73.4 88.6 h -2.9 c -0.2 0 -0.4 -0.2 -0.4 -0.4 V 68.4 c -0.2 -0.5 -1.6 -3.5 -5.5 -3.5 c -0.2 0 -4.3 0 -5.3 3.4 v 19.9 c 0 0.2 -0.2 0.4 -0.4 0.4 h -6.1 c -0.2 0 -0.4 -0.2 -0.4 -0.4 v -20 c -0.2 -0.5 -1.8 -3.3 -5.3 -3.3 H 46.8 c -3.6 -0.1 -5.1 2.8 -5.4 3.3 v 20 c 0 0.2 -0.2 0.4 -0.4 0.4 h -6.1 c -0.2 0 -0.4 -0.2 -0.4 -0.4 V 68.3 c -1 -3.5 -5.3 -3.4 -5.3 -3.4 c -3.9 0 -5.3 3 -5.5 3.5 v 18.4 c 0 0.2 -0.1 0.3 -0.2 0.4 s -0.3 0 -0.4 -0.1 l -3 -3 c -0.1 -0.1 -0.1 -0.2 -0.1 -0.3 V 59.3 c 0 -0.2 0.2 -0.4 0.4 -0.4 h 1 v -9.6 l -0.9 -0.1 c -0.2 0 -0.3 -0.2 -0.3 -0.3 c 0 -0.2 0.1 -0.4 0.3 -0.4 l 8.3 -2.7 v -6.3 l -1.5 -3 c -0.1 -0.1 -0.1 -0.3 0 -0.4 c 0.1 -0.1 0.2 -0.2 0.3 -0.2 h 6.9 c 6.8 -3.9 11.9 -4.7 12.1 -4.7 h 0.5 c 0.2 0 5.3 0.9 12.1 4.7 h 6.9 c 0.1 0 0.3 0.1 0.3 0.2 c 0.1 0.1 0.1 0.3 0 0.4 l -1.5 3 v 6.3 l 8.3 2.7 c 0.2 0.1 0.3 0.2 0.3 0.4 s -0.2 0.3 -0.3 0.3 l -0.9 0.1 V 59 h 1 c 0.2 0 0.4 0.2 0.4 0.4 v 28.9 c 0 0.2 -0.1 0.3 -0.3 0.3 Z m -2.6 -0.7 H 73 V 59.7 h -1 c -0.2 0 -0.4 -0.2 -0.4 -0.4 V 49 c 0 -0.1 0 -0.2 0.1 -0.2 l -7.2 -2.3 c -0.2 -0.1 -0.3 -0.2 -0.3 -0.4 v -6.7 v -0.2 l 1.2 -2.5 H 59 c -0.1 0 -0.1 0 -0.2 -0.1 c -5.3 -3 -10 -4.3 -11.8 -4.6 h -0.1 c -1.8 0.3 -6.6 1.6 -11.9 4.7 c -0.1 0 -0.1 0.1 -0.2 0.1 h -6.4 l 1.2 2.5 v 6.9 c 0 0.2 -0.1 0.3 -0.3 0.4 l -7.2 2.3 c 0 0.1 0.1 0.1 0.1 0.2 v 10.3 c 0 0.2 -0.2 0.4 -0.4 0.4 h -1 v 23.8 c 0.7 0.8 1.4 1.5 2.2 2.3 V 68.2 s 1.5 -4.1 6.2 -4.1 c 0.2 0 5 0 6.1 4.1 V 87.9 h 5.4 V 68.1 v -0.2 s 1.7 -3.9 6.1 -3.8 H 47.1 c 4.3 0 6 3.8 6 3.8 v 19.9 h 5.4 V 68.1 c 1.1 -4.1 6 -4.1 6.1 -4.1 c 4.7 0 6.2 4 6.2 4.1 v 19.8 Z" /><g><path fill="none" d="M 46.9 31.6 v -3.3" /><path fill="#4a4a4a" d="M 46.9 32 c -0.2 0 -0.4 -0.2 -0.4 -0.4 v -3.3 c 0 -0.2 0.2 -0.4 0.4 -0.4 s 0.4 0.2 0.4 0.4 v 3.3 c 0 0.2 -0.2 0.4 -0.4 0.4 Z" /></g><path fill="#4a4a4a" d="M 58.7 46.6 H 35.1 c -0.2 0 -0.4 -0.2 -0.4 -0.4 s 0.2 -0.4 0.4 -0.4 h 23.6 c 0.2 0 0.4 0.2 0.4 0.4 s -0.2 0.4 -0.4 0.4 Z M 51.4 54.9 h -9.1 c -0.2 0 -0.4 -0.2 -0.4 -0.4 s 0.2 -0.4 0.4 -0.4 h 9.1 c 0.2 0 0.4 0.2 0.4 0.4 s -0.1 0.4 -0.4 0.4 Z" /></svg>