<svg xmlns="http://www.w3.org/2000/svg" enable-background="new 0 0 100 100" viewBox="0 0 100 100" x="0px" y="0px" xmlns:xml="http://www.w3.org/XML/1998/namespace" xml:space="preserve" version="1.1">   <path fill="#32a899" d="M 71.3 24.4 C 81.9 31.2 88.9 43 88.9 56.5 c 0 21 -17 38 -38 38 s -38 -17 -38 -38 c 0 -13.8 7.4 -25.9 18.4 -32.6" /><path fill="#4a4a4a" d="M 50.8 94.8 c -10.3 0 -19.9 -4 -27.2 -11.3 S 12.3 66.6 12.3 56.3 c 0 -6.7 1.8 -13.3 5.1 -19.1 c 3.2 -5.6 7.9 -10.4 13.4 -13.7 c 0.2 -0.1 0.4 -0.1 0.5 0.1 s 0.1 0.4 -0.1 0.5 c -5.4 3.3 -10 8 -13.2 13.5 c -3.3 5.7 -5 12.2 -5 18.8 c 0 10.1 3.9 19.5 11 26.6 c 7.1 7.1 16.6 11 26.6 11 s 19.5 -3.9 26.6 -11 s 11 -16.6 11 -26.6 c 0 -12.9 -6.5 -24.8 -17.4 -31.7 c -0.2 -0.1 -0.2 -0.3 -0.1 -0.5 s 0.3 -0.2 0.5 -0.1 c 11.1 7.1 17.7 19.2 17.7 32.4 c 0 10.3 -4 19.9 -11.3 27.2 c -6.9 7.1 -16.5 11.1 -26.8 11.1 Z" /><path fill="#fff" d="M 78.8 48.6 v -4.7 h -2.5 V 39 h 1.3 v -4.8 h -1.3 v -7.8 h 1.2 v -4.7 H 75 v -6.1 h 1.3 v -2.5 h -0.4 c 0 -2.9 -1.4 -3.8 -2.4 -4.6 c -0.5 -0.4 -0.3 -0.7 -0.2 -1 c 0.5 -1.3 -1.3 -2.4 -1.3 -2.4 c -1.5 1.1 -1.5 1.9 -1.2 2.5 c 0.3 0.5 0 0.7 -0.2 0.8 c -1.7 0.8 -2.5 3.7 -2.7 4.6 h -0.3 v 2.5 h 1.6 v 2.9 h -5.4 v 3.5 h -3.6 v -3.5 h -3.9 v 3.3 h -3.7 v -3.3 h -3.5 v 3.3 h -3.7 v -3.3 h -3.9 v 3.5 h -3.6 v -3.5 h -5.4 v -2.9 h 1.6 V 13 h -0.3 c -0.1 -0.9 -0.9 -3.8 -2.7 -4.6 c -0.2 -0.1 -0.5 -0.3 -0.2 -0.8 c 0.3 -0.6 0.4 -1.4 -1.2 -2.5 c 0 0 -1.8 1.1 -1.3 2.4 c 0.1 0.2 0.3 0.6 -0.2 1 c -1.1 0.8 -2.4 1.7 -2.4 4.6 h -0.4 v 2.5 h 1.3 v 6.1 h -2.5 v 4.7 h 1.2 v 7.8 h -1.3 V 39 h 1.3 v 4.9 h -2.5 v 4.7 h 1.2 v 34.9 c 1.4 1.4 2.9 2.7 4.5 3.8 V 60.4 h 2 v 28.3 c 3.3 2 6.9 3.6 10.7 4.6 c 0 -4.2 -0.1 -29.8 0 -32.3 c 0 -1.5 0.2 -3.2 1.8 -5.6 c 1.4 -2.1 4.1 -3.6 7.7 -4.4 c 3.6 0.8 6.3 2.4 7.7 4.4 c 1.6 2.4 1.7 4.1 1.8 5.6 c 0.5 15.6 0.1 29.2 0 32.2 c 3.8 -1 7.4 -2.6 10.7 -4.6 V 60.4 h 2 v 26.9 c 1.6 -1.2 3.1 -2.4 4.5 -3.8 V 48.6 h 1.3 Z" /><path fill="#4a4a4a" d="M 41.3 93.7 c -3.9 -1 -7.6 -2.5 -10.9 -4.7 c -0.1 -0.1 -0.2 -0.2 -0.2 -0.3 V 60.8 H 29 v 26.5 c 0 0.1 -0.1 0.3 -0.2 0.3 c -0.1 0.1 -0.3 0.1 -0.4 0 c -1.6 -1.2 -3.1 -2.5 -4.6 -3.8 c -0.1 -0.1 -0.1 -0.2 -0.1 -0.3 V 49 h -0.8 c -0.2 0 -0.4 -0.2 -0.4 -0.4 v -4.7 c 0 -0.2 0.2 -0.4 0.4 -0.4 H 25 v -4.1 h -0.9 c -0.2 0 -0.4 -0.2 -0.4 -0.4 v -4.8 c 0 -0.2 0.2 -0.4 0.4 -0.4 h 0.9 v -7 h -0.8 c -0.2 0 -0.4 -0.2 -0.4 -0.4 v -4.7 c 0 -0.2 0.2 -0.4 0.4 -0.4 h 2.1 V 16 h -1 c -0.2 0 -0.4 -0.2 -0.4 -0.4 v -2.5 c 0 -0.2 0.2 -0.4 0.4 -0.4 c 0.1 -2.7 1.5 -3.7 2.6 -4.5 c 0.2 -0.2 0.2 -0.2 0.1 -0.4 v -0.1 c -0.6 -1.6 1.4 -2.8 1.5 -2.9 s 0.3 -0.1 0.4 0 c 1.4 1 1.8 2 1.3 3 c -0.1 0.1 -0.1 0.2 -0.1 0.2 l 0.1 0.1 c 1.7 0.8 2.6 3.3 2.8 4.6 c 0.2 0 0.4 0.2 0.4 0.4 v 2.5 c 0 0.2 -0.2 0.4 -0.4 0.4 h -1.2 v 2.2 h 5 c 0.2 0 0.4 0.2 0.4 0.4 v 3.1 h 2.9 v -3.1 c 0 -0.2 0.2 -0.4 0.4 -0.4 h 3.9 c 0.2 0 0.4 0.2 0.4 0.4 v 3 h 2.9 v -3 c 0 -0.2 0.2 -0.4 0.4 -0.4 h 3.5 c 0.2 0 0.4 0.2 0.4 0.4 v 3 h 2.9 v -3 c 0 -0.2 0.2 -0.4 0.4 -0.4 h 3.9 c 0.2 0 0.4 0.2 0.4 0.4 v 3.1 h 2.9 v -3.1 c 0 -0.2 0.2 -0.4 0.4 -0.4 h 5 V 16 h -1.2 c -0.2 0 -0.4 -0.2 -0.4 -0.4 v -2.5 c 0 -0.2 0.2 -0.4 0.4 -0.4 c 0.3 -1.2 1.1 -3.8 2.8 -4.6 c 0.1 0 0.1 -0.1 0.1 -0.1 s 0 -0.1 -0.1 -0.2 c -0.5 -1 -0.1 -1.9 1.3 -3 c 0.1 -0.1 0.3 -0.1 0.4 0 s 2.1 1.2 1.5 2.9 v 0.1 c -0.1 0.2 -0.1 0.3 0.1 0.4 c 1 0.7 2.4 1.7 2.6 4.5 c 0.2 0 0.4 0.2 0.4 0.4 v 2.5 c 0 0.2 -0.2 0.4 -0.4 0.4 h -1 v 5.4 h 2.1 c 0.2 0 0.4 0.2 0.4 0.4 v 4.7 c 0 0.2 -0.2 0.4 -0.4 0.4 h -0.8 v 7 h 0.9 c 0.2 0 0.4 0.2 0.4 0.4 v 4.8 c 0 0.2 -0.2 0.4 -0.4 0.4 h -0.9 v 4.1 h 2.1 c 0.2 0 0.4 0.2 0.4 0.4 v 4.7 c 0 0.2 -0.2 0.4 -0.4 0.4 H 78 v 34.5 c 0 0.1 0 0.2 -0.1 0.3 c -1.4 1.4 -2.9 2.7 -4.6 3.9 c -0.1 0.1 -0.3 0.1 -0.4 0 s -0.2 -0.2 -0.2 -0.3 V 60.8 h -1.3 v 27.8 c 0 0.1 -0.1 0.3 -0.2 0.3 c -3.4 2.1 -7 3.7 -10.8 4.7 c -0.1 0 -0.2 0 -0.3 -0.1 c -0.1 0 -0.1 -0.1 -0.1 -0.3 c 0.1 -1.6 0.5 -15.7 0 -32.2 c 0 -1.5 -0.2 -3.1 -1.7 -5.4 c -1.3 -1.9 -3.9 -3.5 -7.4 -4.3 c -3.5 0.8 -6.1 2.3 -7.4 4.3 c -1.5 2.3 -1.7 3.9 -1.7 5.4 c -0.1 2.4 0 27.3 0 32.2 c 0 0.1 -0.1 0.2 -0.1 0.3 c -0.2 0.1 -0.3 0.2 -0.4 0.2 Z M 31 88.5 c 3.1 1.9 6.4 3.4 9.9 4.3 c 0 -5.9 -0.1 -29.4 0 -31.8 c 0 -1.6 0.2 -3.4 1.9 -5.8 c 1.4 -2.1 4.2 -3.8 7.9 -4.6 h 0.2 c 3.7 0.8 6.5 2.5 7.9 4.6 c 1.6 2.5 1.8 4.2 1.9 5.8 c 0.5 15.3 0.1 28.7 0 31.7 c 3.5 -1 6.8 -2.4 9.9 -4.3 v -28 c 0 -0.2 0.2 -0.4 0.4 -0.4 h 2 c 0.2 0 0.4 0.2 0.4 0.4 v 26.1 c 1.3 -1 2.6 -2.1 3.7 -3.2 V 48.6 c 0 -0.2 0.2 -0.4 0.4 -0.4 h 0.8 v -3.9 h -2.1 c -0.2 0 -0.4 -0.2 -0.4 -0.4 V 39 c 0 -0.2 0.2 -0.4 0.4 -0.4 h 0.9 v -4 h -0.9 c -0.2 0 -0.4 -0.2 -0.4 -0.4 v -7.8 c 0 -0.2 0.2 -0.4 0.4 -0.4 h 0.8 v -4 h -2.1 c -0.2 0 -0.4 -0.2 -0.4 -0.4 v -6.1 c 0 -0.2 0.2 -0.4 0.4 -0.4 h 1 v -1.7 c -0.2 0 -0.4 -0.2 -0.4 -0.4 c 0 -2.6 -1.2 -3.5 -2.2 -4.2 c -0.7 -0.5 -0.5 -1.1 -0.4 -1.3 v -0.1 c 0.3 -0.8 -0.5 -1.5 -0.9 -1.8 c -1.3 1 -1 1.6 -0.9 1.8 c 0.2 0.3 0.2 0.6 0.1 0.8 c -0.1 0.2 -0.2 0.4 -0.5 0.5 c -1.5 0.7 -2.3 3.2 -2.5 4.3 c 0 0.2 -0.1 0.3 -0.3 0.3 V 15 h 1.2 c 0.2 0 0.4 0.2 0.4 0.4 v 2.9 c 0 0.2 -0.2 0.4 -0.4 0.4 h -5 v 3.1 c 0 0.2 -0.2 0.4 -0.4 0.4 h -3.6 c -0.2 0 -0.4 -0.2 -0.4 -0.4 V 19 h -3.1 v 3 c 0 0.2 -0.2 0.4 -0.4 0.4 h -3.7 c -0.2 0 -0.4 -0.2 -0.4 -0.4 v -3 h -2.8 v 3 c 0 0.2 -0.2 0.4 -0.4 0.4 h -3.7 c -0.2 0 -0.4 -0.2 -0.4 -0.4 v -3 h -3.1 v 3.1 c 0 0.2 -0.2 0.4 -0.4 0.4 h -3.6 c -0.2 0 -0.4 -0.2 -0.4 -0.4 V 19 h -5 c -0.2 0 -0.4 -0.2 -0.4 -0.4 v -2.9 c 0 -0.2 0.2 -0.4 0.4 -0.4 h 1.2 v -1.7 c -0.2 0 -0.3 -0.2 -0.3 -0.3 c -0.2 -1.1 -1 -3.7 -2.5 -4.3 c -0.3 -0.1 -0.4 -0.3 -0.5 -0.5 s 0 -0.5 0.1 -0.8 c 0.2 -0.3 0.4 -0.8 -0.9 -1.8 c -0.4 0.3 -1.2 1 -0.9 1.8 v 0.1 c 0.1 0.2 0.4 0.8 -0.4 1.3 c -1 0.7 -2.2 1.6 -2.2 4.2 c 0 0.2 -0.2 0.4 -0.4 0.4 v 1.7 h 1 c 0.2 0 0.4 0.2 0.4 0.4 v 6.1 c 0 0.2 -0.2 0.4 -0.4 0.4 h -2.1 v 4 h 0.8 c 0.2 0 0.4 0.2 0.4 0.4 v 7.8 c 0 0.2 -0.2 0.4 -0.4 0.4 h -0.9 v 4 h 0.9 c 0.2 0 0.4 0.2 0.4 0.4 v 4.9 c 0 0.2 -0.2 0.4 -0.4 0.4 h -2.1 v 3.9 h 0.8 c 0.2 0 0.4 0.2 0.4 0.4 v 34.7 c 1.2 1.2 2.4 2.2 3.7 3.2 V 60.4 c 0 -0.2 0.2 -0.4 0.4 -0.4 h 2 c 0.2 0 0.4 0.2 0.4 0.4 v 28.1 h 0.2 Z" /><path fill="#4a4a4a" d="M 76.7 26.9 H 25 c -0.2 0 -0.4 -0.2 -0.4 -0.4 s 0.2 -0.4 0.4 -0.4 h 51.7 c 0.2 0 0.4 0.2 0.4 0.4 s -0.2 0.4 -0.4 0.4 Z" /><path fill="#4a4a4a" d="M 35.8 91.8 c -0.2 0 -0.4 -0.2 -0.4 -0.4 V 26.5 c 0 -0.2 0.2 -0.4 0.4 -0.4 s 0.4 0.2 0.4 0.4 v 64.9 c 0 0.2 -0.1 0.4 -0.4 0.4 Z M 65.8 91.8 c -0.2 0 -0.4 -0.2 -0.4 -0.4 V 26.5 c 0 -0.2 0.2 -0.4 0.4 -0.4 s 0.4 0.2 0.4 0.4 v 64.9 c 0 0.2 -0.1 0.4 -0.4 0.4 Z" /><path fill="none" d="M 28.6 60.4 v 26.9 c 0.7 0.5 1.3 0.9 2 1.4 V 60.4 h -2 Z M 71 60.4 v 28.2 c 0.7 -0.4 1.4 -0.9 2 -1.4 V 60.4 h -2 Z M 60.3 61 c 0 -1.5 -0.2 -3.2 -1.8 -5.6 c -1.4 -2.1 -4.1 -3.6 -7.7 -4.4 c -3.6 0.8 -6.3 2.4 -7.7 4.4 c -1.6 2.4 -1.7 4.1 -1.8 5.6 c -0.1 2.5 0 28 0 32.3 c 3 0.8 6.2 1.2 9.5 1.2 s 6.5 -0.4 9.5 -1.2 c 0.1 -3 0.5 -16.6 0 -32.3 Z" /></svg>