<svg xmlns="http://www.w3.org/2000/svg" enable-background="new 0 0 100 100" viewBox="0 0 100 100" x="0px" y="0px" xmlns:xml="http://www.w3.org/XML/1998/namespace" xml:space="preserve" version="1.1">   <circle fill="#f05251" cx="50" cy="57.3" r="43.3" /><path fill="#4a4a4a" d="M 50 101 c -11.7 0 -22.6 -4.5 -30.9 -12.8 C 10.9 80 6.3 69 6.3 57.3 s 4.5 -22.6 12.8 -30.9 c 8.2 -8.2 19.2 -12.8 30.9 -12.8 s 22.6 4.5 30.9 12.8 s 12.8 19.2 12.8 30.9 s -4.5 22.6 -12.8 30.9 S 61.7 101 50 101 Z m 0 -86.5 c -11.4 0 -22.2 4.5 -30.3 12.6 c -8.1 8 -12.6 18.8 -12.6 30.2 s 4.5 22.2 12.6 30.3 s 18.9 12.6 30.3 12.6 s 22.2 -4.5 30.3 -12.6 s 12.6 -18.9 12.6 -30.3 S 88.4 35.1 80.3 27 S 61.4 14.5 50 14.5 Z" /><path fill="none" d="M 79 48 H 21.8" /><path fill="#4a4a4a" d="M 79 48.4 H 21.8 c -0.2 0 -0.4 -0.2 -0.4 -0.4 s 0.2 -0.4 0.4 -0.4 H 79 c 0.2 0 0.4 0.2 0.4 0.4 s -0.2 0.4 -0.4 0.4 Z" /><path fill="#fff" d="M 50.3 23.7 c 12.8 -4.1 5.2 -12.2 5.2 -12.2 s 5.5 0 6.7 5.9 c 1.3 6.6 -4.7 5.9 -4.7 5.9 l -2.6 1.8 l 36 22.9 h -8.2 l -3.1 -1.8 l -29.3 -18.6 L 21 46.1 L 18 48 H 9.7 l 36 -22.9 l -2.6 -1.8 s -6 0.6 -4.7 -5.9 c 1.2 -5.9 6.7 -5.9 6.7 -5.9 s -7.7 8 5.2 12.2" /><path fill="#4a4a4a" d="M 90.8 48.4 h -8.2 c -0.1 0 -0.1 0 -0.2 -0.1 l -3.1 -1.8 l -29 -18.4 l -29 18.4 l -3.1 1.8 c -0.1 0 -0.1 0.1 -0.2 0.1 H 9.7 c -0.2 0 -0.3 -0.1 -0.4 -0.3 c 0 -0.2 0 -0.4 0.2 -0.5 L 45 25 l -2 -1.3 c -0.6 0 -2.7 0 -4.1 -1.4 c -1 -1.1 -1.3 -2.8 -0.9 -5 c 1.2 -6.2 7 -6.3 7.1 -6.3 c 0.2 0 0.3 0.1 0.4 0.2 c 0.1 0.1 0 0.3 -0.1 0.4 c 0 0 -2.8 3 -2 6.2 c 0.6 2.3 2.9 4.1 6.9 5.4 c 4 -1.3 6.3 -3.1 6.9 -5.4 c 0.8 -3.1 -2 -6.1 -2 -6.1 c -0.1 -0.1 -0.1 -0.3 -0.1 -0.4 c 0.1 -0.1 0.2 -0.2 0.4 -0.2 c 0.1 0 5.9 0.1 7.1 6.3 c 0.4 2.2 0.1 3.9 -0.9 5 c -1.3 1.5 -3.5 1.5 -4.1 1.4 l -2 1.3 l 35.5 22.6 c 0.2 0.1 0.2 0.3 0.2 0.5 c -0.1 0.1 -0.3 0.2 -0.5 0.2 Z m -8.1 -0.8 h 6.7 L 54.6 25.4 c -0.1 -0.1 -0.2 -0.2 -0.2 -0.3 c 0 -0.1 0.1 -0.3 0.2 -0.3 l 2.6 -1.8 c 0.1 -0.1 0.2 -0.1 0.3 -0.1 c 0 0 2.3 0.2 3.5 -1.2 c 0.8 -0.9 1.1 -2.4 0.7 -4.3 c -0.8 -4.1 -3.8 -5.2 -5.4 -5.5 c 0.2 0.3 0.5 0.8 0.8 1.3 c 0.9 1.7 1.1 3.3 0.7 4.8 c -0.7 2.6 -3.2 4.6 -7.6 6 H 50 c -4.3 -1.4 -6.9 -3.4 -7.6 -6 c -0.4 -1.5 -0.1 -3.1 0.7 -4.8 c 0.3 -0.5 0.6 -1 0.8 -1.3 c -1.5 0.3 -4.6 1.4 -5.4 5.5 c -0.4 1.9 -0.1 3.4 0.7 4.3 c 1.3 1.4 3.5 1.2 3.5 1.2 c 0.1 0 0.2 0 0.3 0.1 l 2.6 1.8 c 0.1 0.1 0.2 0.2 0.2 0.3 c 0 0.1 -0.1 0.3 -0.2 0.3 L 11.1 47.6 h 6.8 l 3 -1.8 l 29.2 -18.5 c 0.1 -0.1 0.3 -0.1 0.4 0 l 29.2 18.5 l 3 1.8 Z" /><path fill="#fff" d="M 18.4 48 h 3.4 v 32.8 h -3.4 Z" /><path fill="#4a4a4a" d="M 21.8 81.2 h -3.4 c -0.2 0 -0.4 -0.2 -0.4 -0.4 V 48 c 0 -0.2 0.2 -0.4 0.4 -0.4 h 3.4 c 0.2 0 0.4 0.2 0.4 0.4 v 32.8 c 0 0.2 -0.2 0.4 -0.4 0.4 Z m -3 -0.8 h 2.6 v -32 h -2.6 v 32 Z" /><path fill="#fff" d="M 79 48 h 3.4 v 32.8 H 79 Z" /><path fill="#4a4a4a" d="M 82.4 81.2 H 79 c -0.2 0 -0.4 -0.2 -0.4 -0.4 V 48 c 0 -0.2 0.2 -0.4 0.4 -0.4 h 3.4 c 0.2 0 0.4 0.2 0.4 0.4 v 32.8 c 0 0.2 -0.2 0.4 -0.4 0.4 Z m -3 -0.8 H 82 v -32 h -2.6 v 32 Z" /><path fill="#fff" d="M 28 48 h 8.7 v 32.8 H 28 Z" /><path fill="#4a4a4a" d="M 36.7 81.2 H 28 c -0.2 0 -0.4 -0.2 -0.4 -0.4 V 48 c 0 -0.2 0.2 -0.4 0.4 -0.4 h 8.7 c 0.2 0 0.4 0.2 0.4 0.4 v 32.8 c 0 0.2 -0.2 0.4 -0.4 0.4 Z m -8.3 -0.8 h 7.9 v -32 h -7.9 v 32 Z" /><path fill="#fff" d="M 64 48 h 8.7 v 32.8 H 64 Z" /><path fill="#4a4a4a" d="M 72.7 81.2 H 64 c -0.2 0 -0.4 -0.2 -0.4 -0.4 V 48 c 0 -0.2 0.2 -0.4 0.4 -0.4 h 8.7 c 0.2 0 0.4 0.2 0.4 0.4 v 32.8 c 0 0.2 -0.1 0.4 -0.4 0.4 Z m -8.3 -0.8 h 7.9 v -32 h -7.9 v 32 Z" /><path fill="#fff" d="M 86.4 80.8 H 13.9 s 10.8 19.8 36.6 19.8 c 0 0 22 0.9 35.9 -19.8 Z" /><path fill="#4a4a4a" d="M 50.9 101 h -0.5 c -5.9 0 -11.6 -1.1 -16.7 -3.1 c -4.1 -1.7 -8 -4 -11.5 -6.9 c -5.9 -5 -8.6 -9.8 -8.7 -10 c -0.1 -0.1 -0.1 -0.3 0 -0.4 s 0.2 -0.2 0.3 -0.2 h 72.5 c 0.1 0 0.3 0.1 0.4 0.2 s 0.1 0.3 0 0.4 c -3.2 4.8 -7.1 8.8 -11.6 12 c -3.6 2.5 -7.6 4.5 -11.8 5.9 c -6 1.9 -10.9 2.1 -12.4 2.1 Z M 14.6 81.2 c 1.2 2 4 5.7 8.2 9.2 c 3.4 2.8 7.2 5.1 11.2 6.7 c 5.1 2 10.6 3.1 16.4 3.1 c 0.1 0 5.6 0.2 12.7 -2.1 c 4.2 -1.4 8.1 -3.3 11.6 -5.8 c 4.2 -3 7.9 -6.7 10.9 -11.1 h -71 Z" /><circle fill="#fff" cx="41" cy="20.6" r="1.3" /><path fill="#4a4a4a" d="M 41 22.2 c -0.9 0 -1.7 -0.7 -1.7 -1.7 s 0.7 -1.7 1.7 -1.7 c 0.9 0 1.7 0.7 1.7 1.7 s -0.8 1.7 -1.7 1.7 Z m 0 -2.7 c -0.6 0 -1 0.5 -1 1 s 0.5 1 1 1 c 0.6 0 1 -0.5 1 -1 s -0.5 -1 -1 -1 Z" /><circle fill="#fff" cx="59.4" cy="20.6" r="1.3" /><path fill="#4a4a4a" d="M 59.4 22.2 c -0.9 0 -1.7 -0.7 -1.7 -1.7 s 0.7 -1.7 1.7 -1.7 c 0.9 0 1.7 0.7 1.7 1.7 s -0.8 1.7 -1.7 1.7 Z m 0 -2.7 c -0.6 0 -1 0.5 -1 1 s 0.5 1 1 1 c 0.6 0 1 -0.5 1 -1 s -0.4 -1 -1 -1 Z" /><circle fill="#fff" cx="50.3" cy="25.6" r="1.2" /><path fill="#4a4a4a" d="M 50.3 27.1 c -0.8 0 -1.5 -0.7 -1.5 -1.5 s 0.7 -1.5 1.5 -1.5 s 1.5 0.7 1.5 1.5 s -0.7 1.5 -1.5 1.5 Z m 0 -2.4 c -0.5 0 -0.9 0.4 -0.9 0.9 s 0.4 0.9 0.9 0.9 s 0.9 -0.4 0.9 -0.9 s -0.4 -0.9 -0.9 -0.9 Z" /><circle fill="#fff" cx="39.8" cy="31.6" r="1.2" /><path fill="#4a4a4a" d="M 39.8 33.1 c -0.8 0 -1.5 -0.7 -1.5 -1.5 s 0.7 -1.5 1.5 -1.5 s 1.5 0.7 1.5 1.5 s -0.7 1.5 -1.5 1.5 Z m 0 -2.4 c -0.5 0 -0.9 0.4 -0.9 0.9 s 0.4 0.9 0.9 0.9 s 0.9 -0.4 0.9 -0.9 c -0.1 -0.5 -0.5 -0.9 -0.9 -0.9 Z" /><circle fill="#fff" cx="71.4" cy="38.2" r="1.2" /><path fill="#4a4a4a" d="M 71.4 39.7 c -0.8 0 -1.5 -0.7 -1.5 -1.5 s 0.7 -1.5 1.5 -1.5 s 1.5 0.7 1.5 1.5 s -0.7 1.5 -1.5 1.5 Z m 0 -2.4 c -0.5 0 -0.9 0.4 -0.9 0.9 s 0.4 0.9 0.9 0.9 s 0.9 -0.4 0.9 -0.9 c -0.1 -0.5 -0.5 -0.9 -0.9 -0.9 Z" /><circle fill="#fff" cx="68" cy="51.3" r="2" /><path fill="#4a4a4a" d="M 68 53.7 c -1.3 0 -2.4 -1.1 -2.4 -2.4 c 0 -1.3 1.1 -2.4 2.4 -2.4 s 2.4 1.1 2.4 2.4 c -0.1 1.3 -1.1 2.4 -2.4 2.4 Z m 0 -4 c -0.9 0 -1.6 0.7 -1.6 1.6 c 0 0.9 0.7 1.6 1.6 1.6 s 1.6 -0.7 1.6 -1.6 c -0.1 -0.8 -0.8 -1.6 -1.6 -1.6 Z" /><circle fill="#fff" cx="68" cy="51.3" r="0.8" /><path fill="#4a4a4a" d="M 68 52.5 c -0.6 0 -1.2 -0.5 -1.2 -1.2 s 0.5 -1.2 1.2 -1.2 c 0.6 0 1.2 0.5 1.2 1.2 s -0.6 1.2 -1.2 1.2 Z m 0 -1.5 c -0.2 0 -0.4 0.2 -0.4 0.4 s 0.2 0.4 0.4 0.4 s 0.4 -0.2 0.4 -0.4 s -0.2 -0.4 -0.4 -0.4 Z" /><circle fill="#fff" cx="32.4" cy="51.3" r="2" /><path fill="#4a4a4a" d="M 32.4 53.7 c -1.3 0 -2.4 -1.1 -2.4 -2.4 c 0 -1.3 1.1 -2.4 2.4 -2.4 s 2.4 1.1 2.4 2.4 c -0.1 1.3 -1.1 2.4 -2.4 2.4 Z m 0 -4 c -0.9 0 -1.6 0.7 -1.6 1.6 c 0 0.9 0.7 1.6 1.6 1.6 c 0.9 0 1.6 -0.7 1.6 -1.6 c -0.1 -0.8 -0.8 -1.6 -1.6 -1.6 Z" /><circle fill="#fff" cx="32.4" cy="51.3" r="0.8" /><path fill="#4a4a4a" d="M 32.4 52.5 c -0.6 0 -1.2 -0.5 -1.2 -1.2 s 0.5 -1.2 1.2 -1.2 s 1.2 0.5 1.2 1.2 s -0.6 1.2 -1.2 1.2 Z m 0 -1.5 c -0.2 0 -0.4 0.2 -0.4 0.4 s 0.2 0.4 0.4 0.4 s 0.4 -0.2 0.4 -0.4 s -0.2 -0.4 -0.4 -0.4 Z" /><circle fill="#fff" cx="81.9" cy="44.8" r="1.2" /><path fill="#4a4a4a" d="M 81.9 46.3 c -0.8 0 -1.5 -0.7 -1.5 -1.5 s 0.7 -1.5 1.5 -1.5 s 1.5 0.7 1.5 1.5 s -0.7 1.5 -1.5 1.5 Z m 0 -2.4 c -0.5 0 -0.9 0.4 -0.9 0.9 s 0.4 0.9 0.9 0.9 s 0.9 -0.4 0.9 -0.9 s -0.4 -0.9 -0.9 -0.9 Z" /><g><circle fill="#fff" cx="18.9" cy="44.8" r="1.2" /><path fill="#4a4a4a" d="M 18.9 46.3 c -0.8 0 -1.5 -0.7 -1.5 -1.5 s 0.7 -1.5 1.5 -1.5 s 1.5 0.7 1.5 1.5 c 0.1 0.8 -0.6 1.5 -1.5 1.5 Z m 0 -2.4 c -0.5 0 -0.9 0.4 -0.9 0.9 s 0.4 0.9 0.9 0.9 s 0.9 -0.4 0.9 -0.9 s -0.4 -0.9 -0.9 -0.9 Z" /></g><g><circle fill="#fff" cx="29.2" cy="38.2" r="1.2" /><path fill="#4a4a4a" d="M 29.2 39.7 c -0.8 0 -1.5 -0.7 -1.5 -1.5 s 0.7 -1.5 1.5 -1.5 s 1.5 0.7 1.5 1.5 c 0.1 0.8 -0.6 1.5 -1.5 1.5 Z m 0 -2.4 c -0.5 0 -0.9 0.4 -0.9 0.9 s 0.4 0.9 0.9 0.9 s 0.9 -0.4 0.9 -0.9 s -0.4 -0.9 -0.9 -0.9 Z" /></g><g><circle fill="#fff" cx="60.9" cy="31.6" r="1.2" /><path fill="#4a4a4a" d="M 60.9 33.1 c -0.8 0 -1.5 -0.7 -1.5 -1.5 s 0.7 -1.5 1.5 -1.5 s 1.5 0.7 1.5 1.5 s -0.6 1.5 -1.5 1.5 Z m 0 -2.4 c -0.5 0 -0.9 0.4 -0.9 0.9 s 0.4 0.9 0.9 0.9 s 0.9 -0.4 0.9 -0.9 s -0.4 -0.9 -0.9 -0.9 Z" /></g><g><path fill="#fff" d="M 50.3 27.6 L 18.4 48 h 64.2 Z" /><path fill="#4a4a4a" d="M 82.6 48 H 18.4 c -0.2 0 -0.3 0 -0.4 -0.1 c 0 -0.2 0 -0.3 0.2 -0.4 L 50 27.2 c 0.1 -0.1 0.3 -0.1 0.4 0 l 32.3 20.4 c 0.2 0.1 0.2 0.1 0.2 0.3 c 0 0.1 -0.1 0.1 -0.3 0.1 Z m -62.9 0 h 61.5 L 50.3 28.5 L 19.7 48 Z" /></g><path fill="#4a4a4a" d="M 69.6 96 H 30.4 c -0.2 0 -0.4 -0.3 -0.4 -0.5 s 0.2 -0.5 0.4 -0.5 h 39.2 c 0.2 0 0.4 0.3 0.4 0.5 s -0.2 0.5 -0.4 0.5 Z M 65.9 91 h -31 c -0.2 0 -0.4 0.2 -0.4 0 s 0.2 0 0.4 0 h 31 c 0.2 0 0.4 -0.2 0.4 0 s -0.2 0 -0.4 0 Z M 61.9 86 H 38 c -0.2 0 -0.4 -0.3 -0.4 -0.5 s 0.1 -0.5 0.4 -0.5 h 23.9 c 0.2 0 0.4 0.3 0.4 0.5 s -0.2 0.5 -0.4 0.5 Z" /><g><path fill="#fff" d="M 21.8 66.9 h 6 v 13.9 h -6 Z" /><path fill="#4a4a4a" d="M 27.8 81.2 h -6 c -0.2 0 -0.4 -0.2 -0.4 -0.4 V 66.9 c 0 -0.2 0.2 -0.4 0.4 -0.4 h 6 c 0.2 0 0.4 0.2 0.4 0.4 v 13.9 c 0 0.2 -0.2 0.4 -0.4 0.4 Z m -5.6 -0.8 h 5.2 V 67.3 h -5.2 v 13.1 Z" /></g><g><path fill="#fff" d="M 73 66.8 h 6 v 14 h -6 Z" /><path fill="#4a4a4a" d="M 79 81.1 h -6 c -0.2 0 -0.4 -0.2 -0.4 -0.4 v -14 c 0 -0.2 0.2 -0.4 0.4 -0.4 h 6 c 0.2 0 0.4 0.2 0.4 0.4 v 14 c 0 0.2 -0.2 0.4 -0.4 0.4 Z m -5.6 -0.8 h 5.2 V 67.2 h -5.2 v 13.1 Z" /></g><g><path fill="none" d="M 24.9 67.1 v 13.7" /><path fill="#4a4a4a" d="M 24.9 81.2 c -0.2 0 -0.4 -0.2 -0.4 -0.4 V 67.1 c 0 -0.2 0.2 -0.4 0.4 -0.4 s 0.4 0.2 0.4 0.4 v 13.7 c 0 0.2 -0.2 0.4 -0.4 0.4 Z" /></g><g><path fill="none" d="M 76 67.1 v 13.4" /><path fill="#4a4a4a" d="M 76 80.9 c -0.2 0 -0.4 -0.2 -0.4 -0.4 V 67.1 c 0 -0.2 0.2 -0.4 0.4 -0.4 s 0.4 0.2 0.4 0.4 v 13.4 c 0 0.2 -0.2 0.4 -0.4 0.4 Z" /></g><g><path fill="#fff" d="M 36.9 67.6 H 64 v 13.1 H 36.9 Z" /><path fill="#4a4a4a" d="M 64 81.2 H 36.9 c -0.2 0 -0.4 -0.2 -0.4 -0.4 V 67.6 c 0 -0.2 0.2 -0.4 0.4 -0.4 H 64 c 0.2 0 0.4 0.2 0.4 0.4 v 13.1 c 0 0.3 -0.2 0.5 -0.4 0.5 Z m -26.7 -0.8 h 26.3 V 68 H 37.3 v 12.4 Z" /></g><g><path fill="none" d="M 40 68 v 12.8" /><path fill="#4a4a4a" d="M 40 81.2 c -0.2 0 -0.4 -0.2 -0.4 -0.4 V 68 c 0 -0.2 0.2 -0.4 0.4 -0.4 s 0.4 0.2 0.4 0.4 v 12.7 c 0 0.3 -0.2 0.5 -0.4 0.5 Z" /></g><g><path fill="none" d="M 44.2 68 v 12.8" /><path fill="#4a4a4a" d="M 44.2 81.2 c -0.2 0 -0.4 -0.2 -0.4 -0.4 V 68 c 0 -0.2 0.2 -0.4 0.4 -0.4 s 0.4 0.2 0.4 0.4 v 12.7 c 0 0.3 -0.2 0.5 -0.4 0.5 Z" /></g><g><path fill="none" d="M 48.4 68 v 12.8" /><path fill="#4a4a4a" d="M 48.4 81.2 c -0.2 0 -0.4 -0.2 -0.4 -0.4 V 68 c 0 -0.2 0.2 -0.4 0.4 -0.4 s 0.4 0.2 0.4 0.4 v 12.7 c 0 0.3 -0.2 0.5 -0.4 0.5 Z" /></g><g><path fill="none" d="M 52.6 68 v 12.8" /><path fill="#4a4a4a" d="M 52.6 81.2 c -0.2 0 -0.4 -0.2 -0.4 -0.4 V 68 c 0 -0.2 0.2 -0.4 0.4 -0.4 s 0.4 0.2 0.4 0.4 v 12.7 c 0 0.3 -0.2 0.5 -0.4 0.5 Z" /></g><g><path fill="none" d="M 56.8 68 v 12.8" /><path fill="#4a4a4a" d="M 56.8 81.2 c -0.2 0 -0.4 -0.2 -0.4 -0.4 V 68 c 0 -0.2 0.2 -0.4 0.4 -0.4 s 0.4 0.2 0.4 0.4 v 12.7 c 0 0.3 -0.1 0.5 -0.4 0.5 Z" /></g><g><path fill="none" d="M 61.1 68 v 12.8" /><path fill="#4a4a4a" d="M 61.1 81.2 c -0.2 0 -0.4 -0.2 -0.4 -0.4 V 68 c 0 -0.2 0.2 -0.4 0.4 -0.4 s 0.4 0.2 0.4 0.4 v 12.7 c 0 0.3 -0.2 0.5 -0.4 0.5 Z" /></g></svg>