<svg xmlns="http://www.w3.org/2000/svg" enable-background="new 0 0 100 100" viewBox="0 0 100 100" x="0px" y="0px" xmlns:xml="http://www.w3.org/XML/1998/namespace" xml:space="preserve" version="1.1">   <title>Nepal</title><g fill="none" fill-rule="evenodd" transform="translate(1)"><circle fill="#31a799" stroke="#4a4a4a" cx="45.3" cy="50.4" r="38" /><circle fill="#fff" stroke="#4a4a4a" cx="45.2" cy="68.3" r="17.8" /><path fill="#fff" stroke="#4a4a4a" stroke-width="0.5" d="M 46.9 20.5 h -3.3 l -0.7 -5.7 h 4.7 Z" /><path fill="#fff" stroke="#4a4a4a" d="M 4.3 76.4 h 81.8 v 6.8 H 4.3 Z" /><path fill="#fff" stroke="#4a4a4a" d="M 0.4 82.2 h 89.7 v 7.4 H 0.4 Z M 18.5 66.1 H 72 v 7 H 18.5 Z" /><path fill="#fff" stroke="#4a4a4a" d="M 10.7 71.5 h 69.2 v 4.9 H 10.7 Z M 50.8 51.5 H 39.6 v -9.3 l 2.4 -23 l 6.6 -0.1 l 2.2 23.1 Z" /><path fill="#4a4a4a" d="M 31.1 63.3 h 1.6 v 1.6 h -1.6 Z" /><path fill="#fff" stroke="#4a4a4a" d="M 38.6 41.9 h 13.2 v 3.5 H 38.6 Z" /><path fill="#4a4a4a" d="M 34 63.3 h 1.6 v 1.6 H 34 Z M 37 63.3 h 1.6 v 1.6 H 37 Z M 40 63.3 h 1.6 v 1.6 H 40 Z M 43.3 63.2 h 1.6 v 1.6 h -1.6 Z M 46.3 63.3 h 1.6 v 1.6 h -1.6 Z M 49.3 63.2 h 1.6 v 1.6 h -1.6 Z M 52.2 63.3 h 1.6 v 1.6 h -1.6 Z M 55.3 63.2 h 1.6 v 1.6 h -1.6 Z M 58.3 63.3 h 1.6 v 1.6 h -1.6 Z M 3.3 84.2 h 4.4 v 1.2 H 3.3 Z M 11.3 84.2 h 4.4 v 1.2 h -4.4 Z M 19.2 84.2 h 4.4 v 1.2 h -4.4 Z M 27.1 84.2 h 4.4 v 1.2 h -4.4 Z M 35.1 84.2 h 4.4 v 1.2 h -4.4 Z M 43 84.2 h 4.4 v 1.2 H 43 Z M 50.9 84.2 h 4.4 v 1.2 h -4.4 Z M 58.8 84.2 h 4.4 v 1.2 h -4.4 Z M 66.8 84.2 h 4.4 v 1.2 h -4.4 Z M 74.7 84.2 h 4.4 v 1.2 h -4.4 Z M 82.6 84.2 H 87 v 1.2 h -4.4 Z" /><path fill="#fff" stroke="#4a4a4a" stroke-width="0.5" d="M 16.4 71.8 c 0 -1.2 -1 -2.2 -2.2 -2.2 c -1.2 0 -2.2 1 -2.2 2.2 V 76 h 4.4 v -4.2 c 0 0.1 0 0.1 0 0 Z M 9.6 71.8 c 0 -1.2 -1 -2.2 -2.2 -2.2 c -1.2 0 -2.2 1 -2.2 2.2 V 76 h 4.4 v -4.2 c 0 0.1 0 0.1 0 0 Z M 85.5 71.8 c 0 -1.2 -1 -2.2 -2.2 -2.2 c -1.2 0 -2.2 1 -2.2 2.2 V 76 h 4.4 v -4.2 c 0 0.1 0 0.1 0 0 Z M 41.1 9.1 L 45.3 0.8 l 3.9 8.3 Z M 78.6 71.8 c 0 -1.2 -1 -2.2 -2.2 -2.2 c -1.2 0 -2.2 1 -2.2 2.2 V 76 h 4.4 v -4.2 c 0 0.1 0 0.1 0 0 Z" /><path fill="#fff" stroke="#4a4a4a" stroke-width="0.75" d="M 47.8 11.3 h -5 l 2.4 -5.6 Z" /><path fill="#fff" stroke="#4a4a4a" d="M 41.1 9.1 h 8.1 v 6.5 h -8.1 Z" /></g></svg>