<svg xmlns="http://www.w3.org/2000/svg" enable-background="new 0 0 100 100" viewBox="0 0 100 100" x="0px" y="0px" xmlns:xml="http://www.w3.org/XML/1998/namespace" xml:space="preserve" version="1.1">   <circle fill="#32a899" cx="49.9" cy="55.8" r="38.9" /><path fill="#4a4a4a" d="M 49.9 95.1 c -10.5 0 -20.4 -4.1 -27.8 -11.5 S 10.6 66.3 10.6 55.8 s 4 -20.4 11.5 -27.8 s 17.3 -11.5 27.8 -11.5 S 70.2 20.6 77.7 28 s 11.5 17.3 11.5 27.8 s -4.1 20.4 -11.5 27.8 C 70.2 91 60.4 95.1 49.9 95.1 Z m 0 -77.8 c -10.3 0 -20 4 -27.3 11.3 s -11.3 17 -11.3 27.3 s 4 20 11.3 27.3 s 17 11.3 27.3 11.3 s 20 -4 27.3 -11.3 c 7.3 -7.3 11.3 -17 11.3 -27.3 s -4 -20 -11.3 -27.3 c -7.4 -7.3 -17 -11.3 -27.3 -11.3 Z" /><path fill="#fff" d="M 38.6 5.5 c 0.4 0 13.9 18.3 13.9 18.3 l 10.3 -12.2 L 80 35.1 H 19.7 S 38.2 5.5 38.6 5.5 Z" /><path fill="#4a4a4a" d="M 80 35.5 H 19.7 c -0.1 0 -0.3 -0.1 -0.3 -0.2 c -0.1 -0.1 -0.1 -0.3 0 -0.4 c 0 -0.1 4.7 -7.5 9.3 -14.8 c 2.7 -4.3 4.9 -7.7 6.5 -10.2 c 3.1 -4.8 3.1 -4.8 3.4 -4.8 c 0.3 0 0.3 0 2.7 3 c 1.2 1.5 2.8 3.6 4.8 6.3 c 2.8 3.7 5.6 7.5 6.5 8.7 l 9.9 -11.8 c 0.1 -0.1 0.2 -0.1 0.3 -0.1 s 0.2 0.1 0.3 0.2 l 17.3 23.5 c 0.1 0.1 0.1 0.3 0 0.4 c -0.1 0.1 -0.3 0.2 -0.4 0.2 Z m -59.6 -0.8 h 58.8 L 62.7 12.3 l -9.9 11.8 c -0.1 0.1 -0.2 0.1 -0.3 0.1 s -0.2 -0.1 -0.3 -0.2 C 47.3 17.5 40.1 7.8 38.6 6.1 c -1.7 2.3 -11.4 17.8 -18.2 28.6 Z" /><path fill="#fff" d="M 32.1 15.5 l 3.8 3 l 3.1 -3.3 l 4.4 3.7 l 2.7 -3.7" /><path fill="#4a4a4a" d="M 43.4 19.3 c -0.1 0 -0.2 0 -0.3 -0.1 L 39 15.8 l -2.9 3 c -0.1 0.1 -0.4 0.2 -0.5 0 l -3.8 -3 c -0.2 -0.1 -0.2 -0.4 -0.1 -0.5 c 0.1 -0.2 0.4 -0.2 0.5 -0.1 l 3.5 2.8 l 2.9 -3 c 0.1 -0.1 0.4 -0.2 0.5 0 l 4 3.4 l 2.4 -3.3 c 0.1 -0.2 0.4 -0.2 0.5 -0.1 c 0.2 0.1 0.2 0.4 0.1 0.5 l -2.7 3.7 c 0.2 0 0.1 0.1 0 0.1 Z" /><path fill="#fff" d="M 56.3 19.7 l 3.2 2.9 l 2.7 -3.2 L 66 23 l 2.3 -3.6" /><path fill="#4a4a4a" d="M 66 23.4 c -0.1 0 -0.2 0 -0.3 -0.1 L 62.2 20 l -2.4 2.9 c 0 0.1 -0.1 0.1 -0.3 0.1 c -0.1 0 -0.2 0 -0.3 -0.1 l -3.3 -3 c -0.2 -0.1 -0.2 -0.4 0 -0.5 c 0.1 -0.2 0.4 -0.2 0.5 0 l 3 2.7 l 2.4 -2.9 c 0.1 -0.1 0.2 -0.1 0.3 -0.1 s 0.2 0 0.3 0.1 l 3.4 3.3 l 2.1 -3.3 c 0.1 -0.2 0.4 -0.2 0.5 -0.1 c 0.2 0.1 0.2 0.4 0.1 0.5 l -2.3 3.7 s -0.1 0.1 -0.2 0.1 Z M 81.5 62.8 c -0.1 0 -0.1 0 -0.2 -0.1 l -3.5 -2.1 l -4.1 2.1 c -0.1 0.1 -0.3 0.1 -0.4 0 l -3.6 -2.1 l -3.9 2.1 c -0.1 0.1 -0.3 0.1 -0.4 0 l -3.4 -2 l -4.2 2.1 c -0.1 0.1 -0.3 0.1 -0.4 0 l -3.7 -2.1 l -3.7 2.1 c -0.1 0.1 -0.3 0.1 -0.4 0 l -3.9 -2.1 l -3.7 2.1 c -0.1 0.1 -0.3 0.1 -0.4 0 l -3.8 -2.1 l -4 2.1 c -0.1 0.1 -0.3 0.1 -0.4 0 l -3.7 -2.1 l -3.9 2.1 c -0.1 0.1 -0.3 0.1 -0.4 0 l -3.5 -2.1 l -4.1 2.1 c -0.1 0.1 -0.2 0.1 -0.3 0 l -6.3 -2.5 c -0.2 0 -0.3 -0.3 -0.2 -0.5 s 0.3 -0.3 0.5 -0.2 l 6.1 2.4 l 4.1 -2.1 c 0.1 -0.1 0.3 -0.1 0.4 0 l 3.5 2.1 l 3.9 -2.1 c 0.1 -0.1 0.3 -0.1 0.4 0 l 3.7 2.1 l 4 -2.1 c 0.1 -0.1 0.3 -0.1 0.4 0 l 3.8 2.1 l 3.7 -2.1 c 0.1 -0.1 0.3 -0.1 0.4 0 l 3.9 2.1 l 3.8 -2.1 c 0.1 -0.1 0.3 -0.1 0.4 0 l 3.7 2.1 l 4.2 -2.1 c 0.1 -0.1 0.3 -0.1 0.4 0 l 3.5 2.1 l 3.9 -2.1 c 0.1 -0.1 0.3 -0.1 0.4 0 l 3.6 2.1 l 4.1 -2.1 c 0.1 -0.1 0.3 -0.1 0.4 0 l 3.6 2.1 l 6.7 -2.5 c 0.2 -0.1 0.4 0 0.5 0.2 s 0 0.4 -0.2 0.5 l -6.9 2.6 h -0.4 Z M 49.8 72.9 h -0.2 l -3.9 -2.1 l -3.7 2 c -0.1 0.1 -0.3 0.1 -0.4 0 l -3.8 -2.1 l -4 2.1 c -0.1 0.1 -0.3 0.1 -0.4 0 l -3.7 -2.1 l -3.9 2.1 c -0.1 0.1 -0.3 0.1 -0.4 0 l -3.5 -2.1 l -4.1 2.1 c -0.1 0.1 -0.3 0.1 -0.4 0 l -3.7 -2.2 c -0.2 -0.1 -0.2 -0.3 -0.1 -0.5 s 0.3 -0.2 0.5 -0.1 l 3.6 2.1 l 4.1 -2.1 c 0.1 -0.1 0.3 -0.1 0.4 0 l 3.5 2.1 l 3.9 -2.1 c 0.1 -0.1 0.3 -0.1 0.4 0 l 3.7 2.1 l 4 -2.1 c 0.1 -0.1 0.3 -0.1 0.4 0 l 3.8 2.1 l 3.7 -2.1 c 0.1 -0.1 0.3 -0.1 0.4 0 l 3.9 2.1 l 3.8 -2.1 c 0.1 -0.1 0.3 -0.1 0.4 0 l 3.7 2.1 L 62 70 c 0.1 -0.1 0.3 -0.1 0.4 0 l 3.5 2.1 l 3.9 -2.1 c 0.1 -0.1 0.3 -0.1 0.4 0 l 3.6 2.1 l 4.1 -2.1 c 0.1 -0.1 0.3 -0.1 0.4 0 l 3.5 2.1 l 3.9 -2.1 c 0.2 -0.1 0.4 0 0.5 0.2 s 0 0.4 -0.2 0.5 l -4.1 2.2 c -0.1 0.1 -0.3 0.1 -0.4 0 L 78 70.8 l -4.1 2.1 c -0.1 0.1 -0.3 0.1 -0.4 0 l -3.6 -2.1 l -3.9 2.1 c -0.1 0.1 -0.3 0.1 -0.4 0 L 62 70.7 l -4.2 2.1 c -0.1 0.1 -0.3 0.1 -0.4 0 l -3.7 -2.1 l -3.7 2.1 s -0.1 0.1 -0.2 0.1 Z M 81.5 55.7 c -0.1 0 -0.1 0 -0.2 -0.1 l -3.5 -2.1 l -4.1 2.1 c -0.1 0.1 -0.3 0.1 -0.4 0 l -3.6 -2.1 l -3.9 2.1 c -0.1 0.1 -0.3 0.1 -0.4 0 L 62 53.5 l -4.2 2.1 c -0.1 0.1 -0.2 0.1 -0.4 0 L 53 53.3 c -0.2 -0.1 -0.3 -0.3 -0.2 -0.5 s 0.3 -0.3 0.5 -0.2 l 4.4 2.3 l 4.2 -2.1 c 0.1 -0.1 0.3 -0.1 0.4 0 l 3.5 2.1 l 3.9 -2.1 c 0.1 -0.1 0.3 -0.1 0.4 0 l 3.6 2.1 l 4.1 -2.1 c 0.1 -0.1 0.3 -0.1 0.4 0 l 3.5 2.1 l 6.7 -2.9 c 0.2 -0.1 0.4 0 0.5 0.2 s 0 0.4 -0.2 0.5 l -6.9 3 h -0.3 Z M 17.6 55.7 h -0.2 l -6.5 -3 c -0.2 -0.1 -0.3 -0.3 -0.2 -0.5 s 0.3 -0.3 0.5 -0.2 l 6.3 2.9 l 4.1 -2.1 c 0.1 -0.1 0.3 -0.1 0.4 0 l 3.5 2.1 l 3.9 -2.1 c 0.1 -0.1 0.3 -0.1 0.4 0 l 2.5 1.4 c 0.2 0.1 0.3 0.3 0.1 0.5 c -0.1 0.2 -0.3 0.3 -0.5 0.1 l -2.4 -1.3 l -3.9 2.1 c -0.1 0.1 -0.3 0.1 -0.4 0 l -3.5 -2.1 l -4.1 2.1 c 0.1 0.1 0.1 0.1 0 0.1 Z M 81.5 42.9 c -0.1 0 -0.1 0 -0.2 -0.1 l -3.5 -2.1 l -4.1 2.1 c -0.1 0.1 -0.3 0.1 -0.4 0 l -3.6 -2.1 l -3.9 2.1 c -0.1 0.1 -0.3 0.1 -0.4 0 l -3.4 -2 l -4.2 2.1 c -0.1 0.1 -0.3 0.1 -0.4 0 l -3.7 -2.1 l -3.7 2.1 c -0.1 0.1 -0.3 0.1 -0.4 0 l -3.9 -2.1 l -3.7 2.1 c -0.1 0.1 -0.3 0.1 -0.4 0 l -3.8 -2.1 l -4 2.1 c -0.1 0.1 -0.3 0.1 -0.4 0 l -3.7 -2.1 l -3.9 2.1 c -0.1 0.1 -0.3 0.1 -0.4 0 l -3.5 -2.1 l -4.1 2.1 c -0.1 0.1 -0.3 0.1 -0.4 0 L 14 40.7 c -0.2 -0.1 -0.2 -0.4 -0.1 -0.5 c 0.1 -0.2 0.4 -0.2 0.5 -0.1 l 3.2 2.1 l 4.1 -2.1 c 0.1 -0.1 0.3 -0.1 0.4 0 l 3.5 2.1 l 3.9 -2.1 c 0.1 -0.1 0.3 -0.1 0.4 0 l 3.7 2.1 l 4 -2.1 c 0.1 -0.1 0.3 -0.1 0.4 0 l 3.8 2.1 l 3.7 -2.1 c 0.1 -0.1 0.3 -0.1 0.4 0 l 3.9 2.1 l 3.8 -2.1 c 0.1 -0.1 0.3 -0.1 0.4 0 l 3.7 2.1 l 4.2 -2.1 c 0.1 -0.1 0.3 -0.1 0.4 0 l 3.5 2.1 l 3.9 -2.1 c 0.1 -0.1 0.3 -0.1 0.4 0 l 3.6 2.1 l 4.1 -2.1 c 0.1 -0.1 0.3 -0.1 0.4 0 l 3.5 2.1 l 3.1 -2.1 c 0.2 -0.1 0.4 -0.1 0.5 0.1 c 0.1 0.2 0.1 0.4 -0.1 0.5 l -3.3 2.2 h -0.4 Z M 33.7 82.3 c -0.1 0 -0.1 0 -0.2 -0.1 l -3.7 -2.1 l -3.9 2.1 c -0.1 0.1 -0.3 0.1 -0.4 0 L 22 80.1 l -1.9 0.9 c -0.2 0.1 -0.4 0 -0.5 -0.2 s 0 -0.4 0.2 -0.5 l 2 -1 c 0.1 -0.1 0.3 -0.1 0.4 0 l 3.5 2.1 l 3.9 -2.1 c 0.1 -0.1 0.3 -0.1 0.4 0 l 3.7 2.1 l 4 -2.1 c 0.1 -0.1 0.3 -0.1 0.4 0 l 3.8 2.1 l 3.7 -2.1 c 0.1 -0.1 0.3 -0.1 0.4 0 l 3.9 2.1 l 3.8 -2.1 c 0.1 -0.1 0.3 -0.1 0.4 0 l 3.7 2.1 l 4.2 -2.1 c 0.1 -0.1 0.3 -0.1 0.4 0 l 3.5 2.1 l 3.9 -2.1 c 0.1 -0.1 0.3 -0.1 0.4 0 l 3.6 2.1 l 4.1 -2.1 c 0.1 -0.1 0.3 -0.1 0.4 0 l 1.5 0.9 c 0.2 0.1 0.2 0.3 0.1 0.5 s -0.3 0.2 -0.5 0.1 l -1.3 -0.8 l -4.1 2.1 c -0.1 0.1 -0.3 0.1 -0.4 0 L 70 80 l -3.9 2.1 c -0.1 0.1 -0.3 0.1 -0.4 0 l -3.7 -2 l -4.2 2.1 c -0.1 0.1 -0.3 0.1 -0.4 0 l -3.7 -2.1 l -3.7 2.1 c -0.1 0.1 -0.3 0.1 -0.4 0 l -3.9 -2.1 l -3.7 2.1 c -0.1 0.1 -0.3 0.1 -0.4 0 l -3.8 -2.1 l -4 2.1 c 0 0.1 -0.1 0.1 -0.1 0.1 Z M 57.7 91.4 c -0.1 0 -0.1 0 -0.2 -0.1 l -3.7 -2.1 l -3.8 2.2 c -0.1 0.1 -0.3 0.1 -0.4 0 l -3.9 -2.1 l -3.7 2.1 c -0.1 0.1 -0.3 0.1 -0.4 0 l -3.8 -2.1 l -4 2.1 c -0.1 0.1 -0.2 0.1 -0.3 0 l -3.6 -1.7 c -0.2 -0.1 -0.3 -0.3 -0.2 -0.5 c 0.1 -0.2 0.3 -0.3 0.5 -0.2 l 3.5 1.6 l 4 -2.1 c 0.1 -0.1 0.3 -0.1 0.4 0 l 3.8 2.1 l 3.7 -2.1 c 0.1 -0.1 0.3 -0.1 0.4 0 l 3.9 2.1 l 3.8 -2.1 c 0.1 -0.1 0.3 -0.1 0.4 0 l 3.7 2.1 l 4.2 -2.1 c 0.1 -0.1 0.3 -0.1 0.4 0 l 3.5 2.1 l 4 -1.8 c 0.2 -0.1 0.4 0 0.5 0.2 s 0 0.4 -0.2 0.5 L 66 91.4 c -0.1 0.1 -0.3 0 -0.4 0 L 62 89.3 l -4.2 2.1 h -0.1 Z" /><g><path fill="none" d="M 53.2 58.7 v -6.8" /><path fill="#4a4a4a" d="M 53.2 59.1 c -0.2 0 -0.4 -0.2 -0.4 -0.4 v -6.8 c 0 -0.2 0.2 -0.4 0.4 -0.4 s 0.4 0.2 0.4 0.4 v 6.8 c -0.1 0.2 -0.2 0.4 -0.4 0.4 Z" /><g><path fill="#fff" d="M 86.2 56.5 v 0.8 S 74.7 63.2 60 63.8 c -23.1 1 -24.5 -1.1 -33.1 -2.4 c 0 0 -9.5 -1.7 -12.1 -2.6 v -0.7 s 24 3.2 40.6 1.8 c -0.1 0 27.4 -1.6 30.8 -3.4 Z" /><path fill="#4a4a4a" d="M 49.4 64.4 c -9.4 0 -13.3 -0.8 -17.3 -1.7 c -1.6 -0.3 -3.3 -0.7 -5.3 -1 c -0.4 -0.1 -9.6 -1.7 -12.2 -2.6 c -0.2 -0.1 -0.3 -0.2 -0.3 -0.4 V 58 c 0 -0.1 0 -0.2 0.1 -0.3 s 0.2 -0.1 0.3 -0.1 s 6.1 0.8 14.1 1.4 c 7.3 0.6 17.9 1.1 26.4 0.4 c 0.3 0 27.5 -1.6 30.7 -3.3 c 0.1 -0.1 0.3 -0.1 0.4 0 s 0.2 0.2 0.2 0.3 v 0.8 c 0 0.1 -0.1 0.3 -0.2 0.3 c -0.1 0.1 -11.8 5.9 -26.4 6.5 c -4.1 0.3 -7.6 0.4 -10.5 0.4 Z m -34.1 -5.9 c 3 1 11.6 2.5 11.7 2.5 c 2.1 0.3 3.7 0.6 5.3 1 c 5.2 1.1 10.1 2.1 27.7 1.4 c 12.5 -0.5 22.9 -5 25.4 -6.2 c -5.8 1.6 -29 3 -30.1 3.1 c -8.6 0.7 -19.2 0.2 -26.5 -0.4 c -6.6 -0.5 -11.9 -1.2 -13.5 -1.4 Z" /><path fill="#fff" d="M 55.5 59.9 l -1.2 -1.2 h -22 l -1.7 0.9" /><path fill="#4a4a4a" d="M 55.5 60.3 c -0.1 0 -0.2 0 -0.3 -0.1 l -1.1 -1.1 H 32.4 l -1.6 0.9 c -0.2 0.1 -0.4 0 -0.5 -0.2 s 0 -0.4 0.2 -0.5 l 1.7 -0.9 h 22.2 c 0.1 0 0.2 0 0.3 0.1 l 1.2 1.2 c 0.2 0.2 0.2 0.4 0 0.5 c -0.2 0 -0.3 0.1 -0.4 0.1 Z" /><g><path fill="#fff" d="M 32.3 58.7 v -9.2 l 20.9 2.4 v 6.8 Z" /><path fill="#4a4a4a" d="M 53.2 59.1 H 32.3 c -0.2 0 -0.4 -0.2 -0.4 -0.4 v -9.2 c 0 -0.1 0 -0.2 0.1 -0.3 c 0.1 -0.1 0.2 -0.1 0.3 -0.1 l 20.9 2.4 c 0.2 0 0.3 0.2 0.3 0.4 v 6.8 c 0 0.2 -0.1 0.4 -0.3 0.4 Z m -20.5 -0.8 h 20.1 v -6.1 l -20.1 -2.3 v 8.4 Z" /></g><g><path fill="#fff" d="M 32.3 49.3 L 61.9 53 s -0.2 -1.9 -1.2 -2 c -7 -1.3 -25.7 -3.2 -27.6 -2.6 c -0.4 0.1 -0.8 0.2 -0.8 0.9 Z" /><path fill="#4a4a4a" d="M 61.9 53.3 l -29.7 -3.6 c -0.2 0 -0.3 -0.2 -0.3 -0.4 c 0 -1 0.7 -1.2 1 -1.3 c 2 -0.7 20.8 1.3 27.8 2.5 c 1.2 0.2 1.5 2.2 1.5 2.4 c 0 0.1 0 0.2 -0.1 0.3 c 0 0.1 -0.1 0.1 -0.2 0.1 Z M 32.7 49 l 28.7 3.5 c -0.1 -0.5 -0.4 -1.1 -0.8 -1.2 c -7.3 -1.3 -25.7 -3.1 -27.5 -2.6 c -0.1 0.1 -0.3 0.1 -0.4 0.3 Z" /></g></g></g></svg>